solid kinect_holder
facet normal -1.0 0.0 2.2543078515013809e-13
  outer loop
    vertex 31.856250000008785 50.0 46.143750000001624
    vertex 31.856250000007424 40.522105193646965 40.10953059726431
    vertex 31.856250000008785 0.0 46.143750000001624
  endloop
endfacet
facet normal -1.0 0.0 2.2543078515013809e-13
  outer loop
    vertex 31.856250000007424 40.522105193646965 40.10953059726431
    vertex 31.856250000008785 50.0 46.143750000001624
    vertex 31.856250000007403 41.03527713489366 40.007455333493226
  endloop
endfacet
facet normal -1.0 0.0 2.2543078515013809e-13
  outer loop
    vertex 31.856250000007403 41.03527713489366 40.007455333493226
    vertex 31.856250000008785 50.0 46.143750000001624
    vertex 31.856250000007364 41.530735254751484 39.83927075565153
  endloop
endfacet
facet normal -1.0 0.0 2.2543078515013809e-13
  outer loop
    vertex 31.856250000007364 41.530735254751484 39.83927075565153
    vertex 31.856250000008785 50.0 46.143750000001624
    vertex 31.85625000000731 42.00000207451847 39.607854566454186
  endloop
endfacet
facet normal -1.0 0.0 2.2543078515013809e-13
  outer loop
    vertex 31.85625000000731 42.00000207451847 39.607854566454186
    vertex 31.856250000008785 50.0 46.143750000001624
    vertex 31.856250000007243 42.43504825869545 39.317166385769305
  endloop
endfacet
facet normal -1.0 0.0 2.2543078515013809e-13
  outer loop
    vertex 31.856250000007243 42.43504825869545 39.317166385769305
    vertex 31.856250000008785 50.0 46.143750000001624
    vertex 31.856250000007165 42.82843 38.972180000001636
  endloop
endfacet
facet normal -1.0 0.0 2.2543078515013809e-13
  outer loop
    vertex 31.856250000007165 42.82843 38.972180000001636
    vertex 31.856250000008785 50.0 46.143750000001624
    vertex 31.85625000000708 43.173416385767666 38.578798258697084
  endloop
endfacet
facet normal -1.0 0.0 2.2543078515013809e-13
  outer loop
    vertex 31.85625000000708 43.173416385767666 38.578798258697084
    vertex 31.856250000008785 50.0 46.143750000001624
    vertex 31.85625000000698 43.46410456645256 38.1437520745201
  endloop
endfacet
facet normal -1.0 0.0 2.2543078515013809e-13
  outer loop
    vertex 31.85625000000698 43.46410456645256 38.1437520745201
    vertex 31.856250000008785 50.0 46.143750000001624
    vertex 31.85625000000687 43.69552075564991 37.67448525475312
  endloop
endfacet
facet normal -1.0 0.0 2.2543078515013809e-13
  outer loop
    vertex 31.85625000000687 43.69552075564991 37.67448525475312
    vertex 31.856250000008785 50.0 46.143750000001624
    vertex 31.856250000006764 43.8637053334916 37.17902713489529
  endloop
endfacet
facet normal -1.0 0.0 2.2543078515013809e-13
  outer loop
    vertex 31.856250000006764 43.8637053334916 37.17902713489529
    vertex 31.856250000008785 50.0 46.143750000001624
    vertex 31.856250000006646 43.965780597262686 36.6658551936486
  endloop
endfacet
facet normal -1.0 0.0 2.2543078515013809e-13
  outer loop
    vertex 31.856250000006646 43.965780597262686 36.6658551936486
    vertex 31.856250000008785 50.0 46.143750000001624
    vertex 31.85625000000653 44.0 36.143750000001624
  endloop
endfacet
facet normal -1.0 0.0 2.2543078515013809e-13
  outer loop
    vertex 31.85625000000653 44.0 36.143750000001624
    vertex 31.856250000008785 50.0 46.143750000001624
    vertex 31.856249999992418 47.07974 -26.45199999999837
  endloop
endfacet
facet normal -1.0 0.0 2.2543078515013809e-13
  outer loop
    vertex 31.856250000008785 0.0 46.143750000001624
    vertex 31.856250000007424 40.522105193646965 40.10953059726431
    vertex 31.85625000000743 39.99999999999999 40.143750000001624
  endloop
endfacet
facet normal -1.0 0.0 2.2543078515013809e-13
  outer loop
    vertex 31.85625000000653 44.0 36.143750000001624
    vertex 31.856249999992418 47.07974 -26.45199999999837
    vertex 31.856249999992777 44.0 -24.85624999999837
  endloop
endfacet
facet normal -1.0 0.0 2.2543078515013809e-13
  outer loop
    vertex 31.856249999992777 44.0 -24.85624999999837
    vertex 31.856249999992418 47.07974 -26.45199999999837
    vertex 31.85624999999266 43.965780597262686 -25.37835519364534
  endloop
endfacet
facet normal -1.0 0.0 2.2543078515013809e-13
  outer loop
    vertex 31.85624999999266 43.965780597262686 -25.37835519364534
    vertex 31.856249999992418 47.07974 -26.45199999999837
    vertex 31.856249999992546 43.86370533349159 -25.891527134892034
  endloop
endfacet
facet normal -1.0 0.0 2.2543078515013809e-13
  outer loop
    vertex 31.856249999992546 43.86370533349159 -25.891527134892034
    vertex 31.856249999992418 47.07974 -26.45199999999837
    vertex 31.856249999992432 43.6955207556499 -26.38698525474986
  endloop
endfacet
facet normal -1.0 0.0 2.2543078515013809e-13
  outer loop
    vertex 31.856249999992432 43.6955207556499 -26.38698525474986
    vertex 31.856249999992418 47.07974 -26.45199999999837
    vertex 31.856249999992325 43.46410456645255 -26.85625207451684
  endloop
endfacet
facet normal -1.0 0.0 2.2543078515013809e-13
  outer loop
    vertex 31.856249999992325 43.46410456645255 -26.85625207451684
    vertex 31.856249999992418 47.07974 -26.45199999999837
    vertex 31.856249999992254 46.850945586132696 -27.197062472078073
  endloop
endfacet
facet normal -1.0 0.0 2.2543078515013809e-13
  outer loop
    vertex 31.856249999992325 43.46410456645255 -26.85625207451684
    vertex 31.856249999992254 46.850945586132696 -27.197062472078073
    vertex 31.85624999999223 43.173416385767666 -27.291298258693825
  endloop
endfacet
facet normal -1.0 0.0 2.2543078515013809e-13
  outer loop
    vertex 31.85624999999223 43.173416385767666 -27.291298258693825
    vertex 31.856249999992254 46.850945586132696 -27.197062472078073
    vertex 31.85624999999209 46.54207394535109 -27.912648442202745
  endloop
endfacet
facet normal -1.0 0.0 2.2543078515013809e-13
  outer loop
    vertex 31.85624999999223 43.173416385767666 -27.291298258693825
    vertex 31.85624999999209 46.54207394535109 -27.912648442202745
    vertex 31.85624999999214 42.82843 -27.684679999998373
  endloop
endfacet
facet normal -1.0 0.0 2.2543078515013809e-13
  outer loop
    vertex 31.85624999999214 42.82843 -27.684679999998373
    vertex 31.85624999999209 46.54207394535109 -27.912648442202745
    vertex 31.856249999992063 42.435048258695446 -28.029666385766042
  endloop
endfacet
facet normal -1.0 0.0 2.2543078515013809e-13
  outer loop
    vertex 31.856249999992063 42.435048258695446 -28.029666385766042
    vertex 31.85624999999209 46.54207394535109 -27.912648442202745
    vertex 31.856249999991938 46.15682729006851 -28.59018071871214
  endloop
endfacet
facet normal -1.0 0.0 2.2543078515013809e-13
  outer loop
    vertex 31.856249999992063 42.435048258695446 -28.029666385766042
    vertex 31.856249999991938 46.15682729006851 -28.59018071871214
    vertex 31.856249999992 42.00000207451846 -28.320354566450927
  endloop
endfacet
facet normal -1.0 0.0 2.2543078515013809e-13
  outer loop
    vertex 31.856249999992 42.00000207451846 -28.320354566450927
    vertex 31.856249999991938 46.15682729006851 -28.59018071871214
    vertex 31.85624999999194 41.530735254751484 -28.551770755648278
  endloop
endfacet
facet normal -1.0 0.0 2.2543078515013809e-13
  outer loop
    vertex 31.85624999999194 41.530735254751484 -28.551770755648278
    vertex 31.856249999991938 46.15682729006851 -28.59018071871214
    vertex 31.85624999999191 41.03527713489366 -28.719955333489974
  endloop
endfacet
facet normal -1.0 0.0 2.2543078515013809e-13
  outer loop
    vertex 31.85624999999191 41.03527713489366 -28.719955333489974
    vertex 31.856249999991938 46.15682729006851 -28.59018071871214
    vertex 31.856249999991796 45.69982328264393 -29.221538230995208
  endloop
endfacet
facet normal -1.0 0.0 2.2543078515013809e-13
  outer loop
    vertex 31.85624999999191 41.03527713489366 -28.719955333489974
    vertex 31.856249999991796 45.69982328264393 -29.221538230995208
    vertex 31.856249999991885 40.522105193646965 -28.822030597261058
  endloop
endfacet
facet normal -1.0 0.0 2.2543078515013809e-13
  outer loop
    vertex 31.856249999991885 40.522105193646965 -28.822030597261058
    vertex 31.856249999991796 45.69982328264393 -29.221538230995208
    vertex 31.856249999991874 39.99999999999999 -28.856249999998372
  endloop
endfacet
facet normal -1.0 0.0 2.2543078515013809e-13
  outer loop
    vertex 31.856249999991874 39.99999999999999 -28.856249999998372
    vertex 31.856249999991796 45.69982328264393 -29.221538230995208
    vertex 31.856249999991874 10.000000000000002 -28.856249999998372
  endloop
endfacet
facet normal -1.0 0.0 2.2543078515013809e-13
  outer loop
    vertex 31.856250000008785 0.0 46.143750000001624
    vertex 31.85625000000653 6.0 36.143750000001624
    vertex 31.856249999992716 2.741119999999999 -25.125279999998362
  endloop
endfacet
facet normal -1.0 0.0 2.2543078515013809e-13
  outer loop
    vertex 31.85625000000653 6.0 36.143750000001624
    vertex 31.856250000008785 0.0 46.143750000001624
    vertex 31.856250000006646 6.034219402737314 36.6658551936486
  endloop
endfacet
facet normal -1.0 0.0 2.2543078515013809e-13
  outer loop
    vertex 31.856250000006646 6.034219402737314 36.6658551936486
    vertex 31.856250000008785 0.0 46.143750000001624
    vertex 31.856250000006764 6.1362946665084035 37.17902713489529
  endloop
endfacet
facet normal -1.0 0.0 2.2543078515013809e-13
  outer loop
    vertex 31.856250000006764 6.1362946665084035 37.17902713489529
    vertex 31.856250000008785 0.0 46.143750000001624
    vertex 31.85625000000687 6.3044792443500945 37.67448525475312
  endloop
endfacet
facet normal -1.0 0.0 2.2543078515013809e-13
  outer loop
    vertex 31.85625000000687 6.3044792443500945 37.67448525475312
    vertex 31.856250000008785 0.0 46.143750000001624
    vertex 31.85625000000698 6.535895433547445 38.1437520745201
  endloop
endfacet
facet normal -1.0 0.0 2.2543078515013809e-13
  outer loop
    vertex 31.85625000000698 6.535895433547445 38.1437520745201
    vertex 31.856250000008785 0.0 46.143750000001624
    vertex 31.85625000000708 6.826583614232329 38.57879825869708
  endloop
endfacet
facet normal -1.0 0.0 2.2543078515013809e-13
  outer loop
    vertex 31.85625000000708 6.826583614232329 38.57879825869708
    vertex 31.856250000008785 0.0 46.143750000001624
    vertex 31.856250000007165 7.171570000000001 38.97218000000163
  endloop
endfacet
facet normal -1.0 0.0 2.2543078515013809e-13
  outer loop
    vertex 31.856250000007165 7.171570000000001 38.97218000000163
    vertex 31.856250000008785 0.0 46.143750000001624
    vertex 31.856250000007243 7.56495174130455 39.3171663857693
  endloop
endfacet
facet normal -1.0 0.0 2.2543078515013809e-13
  outer loop
    vertex 31.856250000007243 7.56495174130455 39.3171663857693
    vertex 31.856250000008785 0.0 46.143750000001624
    vertex 31.85625000000731 7.99999792548153 39.607854566454186
  endloop
endfacet
facet normal -1.0 0.0 2.2543078515013809e-13
  outer loop
    vertex 31.85625000000731 7.99999792548153 39.607854566454186
    vertex 31.856250000008785 0.0 46.143750000001624
    vertex 31.856250000007364 8.46926474524851 39.83927075565153
  endloop
endfacet
facet normal -1.0 0.0 2.2543078515013809e-13
  outer loop
    vertex 31.856250000007364 8.46926474524851 39.83927075565153
    vertex 31.856250000008785 0.0 46.143750000001624
    vertex 31.856250000007403 8.964722865106337 40.00745533349322
  endloop
endfacet
facet normal -1.0 0.0 2.2543078515013809e-13
  outer loop
    vertex 31.856250000007403 8.964722865106337 40.00745533349322
    vertex 31.856250000008785 0.0 46.143750000001624
    vertex 31.856250000007424 9.47789480635303 40.10953059726431
  endloop
endfacet
facet normal -1.0 0.0 2.2543078515013809e-13
  outer loop
    vertex 31.856250000007424 9.47789480635303 40.10953059726431
    vertex 31.856250000008785 0.0 46.143750000001624
    vertex 31.85625000000743 10.000000000000002 40.143750000001624
  endloop
endfacet
facet normal -1.0 0.0 2.2543078515013809e-13
  outer loop
    vertex 31.85625000000743 10.000000000000002 40.143750000001624
    vertex 31.856250000008785 0.0 46.143750000001624
    vertex 31.85625000000743 39.99999999999999 40.143750000001624
  endloop
endfacet
facet normal -1.0 0.0 2.2543078515013809e-13
  outer loop
    vertex 31.856249999992716 2.741119999999999 -25.125279999998362
    vertex 31.85625000000653 6.0 36.143750000001624
    vertex 31.856249999992777 6.0 -24.85624999999837
  endloop
endfacet
facet normal -1.0 0.0 2.2543078515013809e-13
  outer loop
    vertex 31.856249999992716 2.741119999999999 -25.125279999998362
    vertex 31.856249999992777 6.0 -24.85624999999837
    vertex 31.85624999999266 6.034219402737316 -25.37835519364534
  endloop
endfacet
facet normal -1.0 0.0 2.2543078515013809e-13
  outer loop
    vertex 31.856249999992716 2.741119999999999 -25.125279999998362
    vertex 31.85624999999266 6.034219402737316 -25.37835519364534
    vertex 31.856249999992517 2.8323327560587375 -26.013876257358056
  endloop
endfacet
facet normal -1.0 0.0 2.2543078515013809e-13
  outer loop
    vertex 31.856249999992517 2.8323327560587375 -26.013876257358056
    vertex 31.85624999999266 6.034219402737316 -25.37835519364534
    vertex 31.856249999992546 6.136294666508407 -25.891527134892034
  endloop
endfacet
facet normal -1.0 0.0 2.2543078515013809e-13
  outer loop
    vertex 31.856249999992517 2.8323327560587375 -26.013876257358056
    vertex 31.856249999992546 6.136294666508407 -25.891527134892034
    vertex 31.856249999992432 6.304479244350098 -26.38698525474986
  endloop
endfacet
facet normal -1.0 0.0 2.2543078515013809e-13
  outer loop
    vertex 31.856249999992517 2.8323327560587375 -26.013876257358056
    vertex 31.856249999992432 6.304479244350098 -26.38698525474986
    vertex 31.856249999992322 3.03596504647204 -26.88362160271065
  endloop
endfacet
facet normal -1.0 0.0 2.2543078515013809e-13
  outer loop
    vertex 31.856249999992322 3.03596504647204 -26.88362160271065
    vertex 31.856249999992432 6.304479244350098 -26.38698525474986
    vertex 31.856249999992325 6.535895433547448 -26.85625207451684
  endloop
endfacet
facet normal -1.0 0.0 2.2543078515013809e-13
  outer loop
    vertex 31.856249999992322 3.03596504647204 -26.88362160271065
    vertex 31.856249999992325 6.535895433547448 -26.85625207451684
    vertex 31.85624999999223 6.826583614232334 -27.291298258693825
  endloop
endfacet
facet normal -1.0 0.0 2.2543078515013809e-13
  outer loop
    vertex 31.856249999992322 3.03596504647204 -26.88362160271065
    vertex 31.85624999999223 6.826583614232334 -27.291298258693825
    vertex 31.856249999992134 3.3487008900436654 -27.720352961993324
  endloop
endfacet
facet normal -1.0 0.0 2.2543078515013809e-13
  outer loop
    vertex 31.856249999992134 3.3487008900436654 -27.720352961993324
    vertex 31.85624999999223 6.826583614232334 -27.291298258693825
    vertex 31.85624999999214 7.1715700000000036 -27.684679999998362
  endloop
endfacet
facet normal -1.0 0.0 2.2543078515013809e-13
  outer loop
    vertex 31.856249999992134 3.3487008900436654 -27.720352961993324
    vertex 31.85624999999214 7.1715700000000036 -27.684679999998362
    vertex 31.856249999992063 7.5649517413045535 -28.029666385766042
  endloop
endfacet
facet normal -1.0 0.0 2.2543078515013809e-13
  outer loop
    vertex 31.856249999992134 3.3487008900436654 -27.720352961993324
    vertex 31.856249999992063 7.5649517413045535 -28.029666385766042
    vertex 31.856249999991952 3.765447645647936 -28.51044486623915
  endloop
endfacet
facet normal -1.0 0.0 2.2543078515013809e-13
  outer loop
    vertex 31.856249999991952 3.765447645647936 -28.51044486623915
    vertex 31.856249999992063 7.5649517413045535 -28.029666385766042
    vertex 31.856249999992 7.999997925481533 -28.320354566450927
  endloop
endfacet
facet normal -1.0 0.0 2.2543078515013809e-13
  outer loop
    vertex 31.856249999991952 3.765447645647936 -28.51044486623915
    vertex 31.856249999992 7.999997925481533 -28.320354566450927
    vertex 31.85624999999194 8.46926474524851 -28.551770755648278
  endloop
endfacet
facet normal -1.0 0.0 2.2543078515013809e-13
  outer loop
    vertex 31.856249999991952 3.765447645647936 -28.51044486623915
    vertex 31.85624999999194 8.46926474524851 -28.551770755648278
    vertex 31.85624999999179 4.279418941622604 -29.2410313309205
  endloop
endfacet
facet normal -1.0 0.0 2.2543078515013809e-13
  outer loop
    vertex 31.85624999999179 4.279418941622604 -29.2410313309205
    vertex 31.85624999999194 8.46926474524851 -28.551770755648278
    vertex 31.85624999999191 8.964722865106337 -28.719955333489963
  endloop
endfacet
facet normal -1.0 0.0 2.2543078515013809e-13
  outer loop
    vertex 31.85624999999179 4.279418941622604 -29.2410313309205
    vertex 31.85624999999191 8.964722865106337 -28.719955333489963
    vertex 31.856249999991885 9.477894806353031 -28.822030597261058
  endloop
endfacet
facet normal -1.0 0.0 2.2543078515013809e-13
  outer loop
    vertex 31.85624999999179 4.279418941622604 -29.2410313309205
    vertex 31.856249999991885 9.477894806353031 -28.822030597261058
    vertex 31.856249999991874 10.000000000000002 -28.856249999998372
  endloop
endfacet
facet normal -1.0 0.0 2.2543078515013809e-13
  outer loop
    vertex 31.85624999999179 4.279418941622604 -29.2410313309205
    vertex 31.856249999991874 10.000000000000002 -28.856249999998372
    vertex 31.856249999991796 45.69982328264393 -29.221538230995208
  endloop
endfacet
facet normal -1.0 0.0 2.2543078515013809e-13
  outer loop
    vertex 31.85624999999179 4.279418941622604 -29.2410313309205
    vertex 31.856249999991796 45.69982328264393 -29.221538230995208
    vertex 31.856249999991668 45.176539686930795 -29.799153370665156
  endloop
endfacet
facet normal -1.0 0.0 2.2543078515013809e-13
  outer loop
    vertex 31.85624999999179 4.279418941622604 -29.2410313309205
    vertex 31.856249999991668 45.176539686930795 -29.799153370665156
    vertex 31.85624999999164 4.882245186144089 -29.900215367724797
  endloop
endfacet
facet normal -1.0 0.0 2.2543078515013809e-13
  outer loop
    vertex 31.85624999999164 4.882245186144089 -29.900215367724797
    vertex 31.856249999991668 45.176539686930795 -29.799153370665156
    vertex 31.856249999991547 44.59324871043525 -30.31610269879826
  endloop
endfacet
facet normal -1.0 0.0 2.2543078515013809e-13
  outer loop
    vertex 31.85624999999164 4.882245186144089 -29.900215367724797
    vertex 31.856249999991547 44.59324871043525 -30.31610269879826
    vertex 31.85624999999151 5.564109859016217 -30.477262717038933
  endloop
endfacet
facet normal -1.0 0.0 2.2543078515013809e-13
  outer loop
    vertex 31.85624999999151 5.564109859016217 -30.477262717038933
    vertex 31.856249999991547 44.59324871043525 -30.31610269879826
    vertex 31.856249999991448 43.956941824074796 -30.766189931997186
  endloop
endfacet
facet normal -1.0 0.0 2.2543078515013809e-13
  outer loop
    vertex 31.85624999999151 5.564109859016217 -30.477262717038933
    vertex 31.856249999991448 43.956941824074796 -30.766189931997186
    vertex 31.8562499999914 6.313909365474931 -30.962776646371296
  endloop
endfacet
facet normal -1.0 0.0 2.2543078515013809e-13
  outer loop
    vertex 31.8562499999914 6.313909365474931 -30.962776646371296
    vertex 31.856249999991448 43.956941824074796 -30.766189931997186
    vertex 31.856249999991363 43.27524596066664 -31.144020212587044
  endloop
endfacet
facet normal -1.0 0.0 2.2543078515013809e-13
  outer loop
    vertex 31.8562499999914 6.313909365474931 -30.962776646371296
    vertex 31.856249999991363 43.27524596066664 -31.144020212587044
    vertex 31.856249999991316 7.119433848923702 -31.348850968265495
  endloop
endfacet
facet normal -1.0 0.0 2.2543078515013809e-13
  outer loop
    vertex 31.856249999991316 7.119433848923702 -31.348850968265495
    vertex 31.856249999991363 43.27524596066664 -31.144020212587044
    vertex 31.856249999991295 42.556332096611335 -31.445064772723036
  endloop
endfacet
facet normal -1.0 0.0 2.2543078515013809e-13
  outer loop
    vertex 31.856249999991316 7.119433848923702 -31.348850968265495
    vertex 31.856249999991295 42.556332096611335 -31.445064772723036
    vertex 31.85624999999125 7.967566018215785 -31.629198785937383
  endloop
endfacet
facet normal -1.0 0.0 2.2543078515013809e-13
  outer loop
    vertex 31.85624999999125 7.967566018215785 -31.629198785937383
    vertex 31.856249999991295 42.556332096611335 -31.445064772723036
    vertex 31.856249999991242 41.80881731253465 -31.66571521732985
  endloop
endfacet
facet normal -1.0 0.0 2.2543078515013809e-13
  outer loop
    vertex 31.85624999999125 7.967566018215785 -31.629198785937383
    vertex 31.856249999991242 41.80881731253465 -31.66571521732985
    vertex 31.856249999991217 8.844494751747662 -31.79925487012039
  endloop
endfacet
facet normal -1.0 0.0 2.2543078515013809e-13
  outer loop
    vertex 31.856249999991217 8.844494751747662 -31.79925487012039
    vertex 31.856249999991242 41.80881731253465 -31.66571521732985
    vertex 31.85624999999121 41.041661506813 -31.803326775223674
  endloop
endfacet
facet normal -1.0 0.0 2.2543078515013809e-13
  outer loop
    vertex 31.856249999991217 8.844494751747662 -31.79925487012039
    vertex 31.85624999999121 41.041661506813 -31.803326775223674
    vertex 31.8562499999912 9.73594 -31.856249999998365
  endloop
endfacet
facet normal -1.0 0.0 2.2543078515013809e-13
  outer loop
    vertex 31.8562499999912 9.73594 -31.856249999998365
    vertex 31.85624999999121 41.041661506813 -31.803326775223674
    vertex 31.8562499999912 40.26406 -31.856249999998365
  endloop
endfacet
facet normal -2.2359529032085849e-13 -0.12735005589916254 -0.991857834199277
  outer loop
    vertex 31.856249999991217 8.844494751747662 -31.79925487012039
    vertex 46.14374999999125 7.967566018215785 -31.62919878594061
    vertex 31.85624999999125 7.967566018215785 -31.629198785937383
  endloop
endfacet
facet normal -2.1811873357179496e-13 -0.2526256567957191 -0.9675640947908989
  outer loop
    vertex 46.14374999999125 7.967566018215785 -31.62919878594061
    vertex 31.856249999991217 8.844494751747662 -31.79925487012039
    vertex 46.14374999999121 8.844494751747662 -31.799254870123615
  endloop
endfacet
facet normal -2.2543078515013809e-13 0.0 -1.0
  outer loop
    vertex 31.8562499999912 40.26406 -31.856249999998365
    vertex 46.1437499999912 9.73594 -31.856250000001594
    vertex 31.8562499999912 9.73594 -31.856249999998365
  endloop
endfacet
facet normal -2.2543078515013809e-13 0.0 -1.0
  outer loop
    vertex 46.1437499999912 9.73594 -31.856250000001594
    vertex 31.8562499999912 40.26406 -31.856249999998365
    vertex 46.1437499999912 40.26406 -31.856250000001594
  endloop
endfacet
facet normal -1.9665699826429366e-13 -0.4888624488259441 -0.8723608806726156
  outer loop
    vertex 31.8562499999914 6.313909365474931 -30.962776646371296
    vertex 46.14374999999151 5.564109859016217 -30.47726271704216
    vertex 31.85624999999151 5.564109859016217 -30.477262717038933
  endloop
endfacet
facet normal -1.8102130607942554e-13 -0.5959767217786011 -0.8030017105199914
  outer loop
    vertex 46.14374999999151 5.564109859016217 -30.47726271704216
    vertex 31.8562499999914 6.313909365474931 -30.962776646371296
    vertex 46.1437499999914 6.313909365474931 -30.96277664637452
  endloop
endfacet
facet normal -8.626837105467781e-14 0.9238800020978701 -0.382682298680824
  outer loop
    vertex 46.143750000006875 6.3044792443500945 37.6744852547499
    vertex 31.856250000006764 6.1362946665084035 37.17902713489529
    vertex 31.85625000000687 6.3044792443500945 37.67448525475312
  endloop
endfacet
facet normal -5.834542428481364e-14 0.9659262497470313 -0.2588174647307167
  outer loop
    vertex 31.856250000006764 6.1362946665084035 37.17902713489529
    vertex 46.143750000006875 6.3044792443500945 37.6744852547499
    vertex 46.14375000000676 6.1362946665084035 37.179027134892074
  endloop
endfacet
facet normal -6.617562023648353e-14 0.9559431579521243 -0.29355183318201294
  outer loop
    vertex 46.143749999992416 47.07974 -26.452000000001597
    vertex 31.856249999992254 46.850945586132696 -27.197062472078073
    vertex 31.856249999992418 47.07974 -26.45199999999837
  endloop
endfacet
facet normal -7.787299867134278e-14 0.938440530598744 -0.34544083506376005
  outer loop
    vertex 31.856249999992254 46.850945586132696 -27.197062472078073
    vertex 46.143749999992416 47.07974 -26.452000000001597
    vertex 46.143749999992245 46.850945586132696 -27.1970624720813
  endloop
endfacet
facet normal -5.834542428481364e-14 0.9659262497470313 -0.2588174647307167
  outer loop
    vertex 46.14375000000676 6.1362946665084035 37.179027134892074
    vertex 31.856250000006646 6.034219402737314 36.6658551936486
    vertex 31.856250000006764 6.1362946665084035 37.17902713489529
  endloop
endfacet
facet normal -2.9424164898992215e-14 0.9914451283175304 -0.1305241645651705
  outer loop
    vertex 31.856250000006646 6.034219402737314 36.6658551936486
    vertex 46.14375000000676 6.1362946665084035 37.179027134892074
    vertex 46.14375000000665 6.034219402737314 36.66585519364538
  endloop
endfacet
facet normal -2.9424164898992215e-14 0.9914451283175304 -0.1305241645651705
  outer loop
    vertex 46.14375000000665 6.034219402737314 36.66585519364538
    vertex 31.85625000000653 6.0 36.143750000001624
    vertex 31.856250000006646 6.034219402737314 36.6658551936486
  endloop
endfacet
facet normal -1.4743372715389008e-14 0.9978590703712928 -0.06540088438040902
  outer loop
    vertex 31.85625000000653 6.0 36.143750000001624
    vertex 46.14375000000665 6.034219402737314 36.66585519364538
    vertex 46.14375000000653 6.0 36.143749999998406
  endloop
endfacet
facet normal -9.060923269785257e-15 0.9991919021074565 -0.04019381498294758
  outer loop
    vertex 46.14375000000878 50.0 46.143749999998406
    vertex 31.856249999992418 47.07974 -26.45199999999837
    vertex 31.856250000008785 50.0 46.143750000001624
  endloop
endfacet
facet normal -9.060923269785257e-15 0.9991919021074565 -0.04019381498294758
  outer loop
    vertex 31.856249999992418 47.07974 -26.45199999999837
    vertex 46.14375000000878 50.0 46.143749999998406
    vertex 46.143749999992416 47.07974 -26.452000000001597
  endloop
endfacet
facet normal -1.1271523286607988e-13 -0.86602581281438 -0.4999992915386909
  outer loop
    vertex 46.143750000006975 43.46410456645256 38.14375207451688
    vertex 31.85625000000708 43.173416385767666 38.578798258697084
    vertex 31.85625000000698 43.46410456645256 38.1437520745201
  endloop
endfacet
facet normal -1.3723349375701496e-13 -0.7933535892929963 -0.6087611045031704
  outer loop
    vertex 31.85625000000708 43.173416385767666 38.578798258697084
    vertex 46.143750000006975 43.46410456645256 38.14375207451688
    vertex 46.14375000000708 43.173416385767666 38.578798258693865
  endloop
endfacet
facet normal -1.3723349375701496e-13 -0.7933535892929963 -0.6087611045031704
  outer loop
    vertex 46.14375000000708 43.173416385767666 38.578798258693865
    vertex 31.856250000007165 42.82843 38.972180000001636
    vertex 31.85625000000708 43.173416385767666 38.578798258697084
  endloop
endfacet
facet normal -1.5940363686787032e-13 -0.7071067811865476 -0.7071067811865476
  outer loop
    vertex 31.856250000007165 42.82843 38.972180000001636
    vertex 46.14375000000708 43.173416385767666 38.578798258693865
    vertex 46.14375000000717 42.82843 38.97217999999841
  endloop
endfacet
facet normal -1.5940363686787032e-13 -0.7071067811865476 -0.7071067811865476
  outer loop
    vertex 31.856250000007165 42.82843 38.972180000001636
    vertex 46.143750000007245 42.43504825869545 39.31716638576608
    vertex 31.856250000007243 42.43504825869545 39.317166385769305
  endloop
endfacet
facet normal -1.788463225360009e-13 -0.6087611045031669 -0.7933535892929988
  outer loop
    vertex 46.143750000007245 42.43504825869545 39.31716638576608
    vertex 31.856250000007165 42.82843 38.972180000001636
    vertex 46.14375000000717 42.82843 38.97217999999841
  endloop
endfacet
facet normal -1.788463225360009e-13 -0.6087611045031669 -0.7933535892929988
  outer loop
    vertex 31.856250000007243 42.43504825869545 39.317166385769305
    vertex 46.14375000000731 42.00000207451847 39.60785456645097
    vertex 31.85625000000731 42.00000207451847 39.607854566454186
  endloop
endfacet
facet normal -1.9522887894303273e-13 -0.4999992915386869 -0.8660258128143823
  outer loop
    vertex 46.14375000000731 42.00000207451847 39.60785456645097
    vertex 31.856250000007243 42.43504825869545 39.317166385769305
    vertex 46.143750000007245 42.43504825869545 39.31716638576608
  endloop
endfacet
facet normal -1.9522887894303273e-13 -0.4999992915386869 -0.8660258128143823
  outer loop
    vertex 31.85625000000731 42.00000207451847 39.607854566454186
    vertex 46.14375000000736 41.530735254751484 39.839270755648315
    vertex 31.856250000007364 41.530735254751484 39.83927075565153
  endloop
endfacet
facet normal -2.0827099425743436e-13 -0.38268229868082115 -0.9238800020978714
  outer loop
    vertex 46.14375000000736 41.530735254751484 39.839270755648315
    vertex 31.85625000000731 42.00000207451847 39.607854566454186
    vertex 46.14375000000731 42.00000207451847 39.60785456645097
  endloop
endfacet
facet normal -2.0827099425743436e-13 -0.38268229868082115 -0.9238800020978714
  outer loop
    vertex 31.856250000007364 41.530735254751484 39.83927075565153
    vertex 46.143750000007394 41.03527713489366 40.00745533349001
    vertex 31.856250000007403 41.03527713489366 40.007455333493226
  endloop
endfacet
facet normal -2.1774951287760184e-13 -0.25881746473071304 -0.9659262497470322
  outer loop
    vertex 46.143750000007394 41.03527713489366 40.00745533349001
    vertex 31.856250000007364 41.530735254751484 39.83927075565153
    vertex 46.14375000000736 41.530735254751484 39.839270755648315
  endloop
endfacet
facet normal -2.1774951287760184e-13 -0.25881746473071304 -0.9659262497470322
  outer loop
    vertex 31.856250000007403 41.03527713489366 40.007455333493226
    vertex 46.14375000000742 40.522105193646965 40.10953059726109
    vertex 31.856250000007424 40.522105193646965 40.10953059726431
  endloop
endfacet
facet normal -2.2350225370990037e-13 -0.1305241645651682 -0.9914451283175308
  outer loop
    vertex 46.14375000000742 40.522105193646965 40.10953059726109
    vertex 31.856250000007403 41.03527713489366 40.007455333493226
    vertex 46.143750000007394 41.03527713489366 40.00745533349001
  endloop
endfacet
facet normal -2.2350225370990037e-13 -0.1305241645651682 -0.9914451283175308
  outer loop
    vertex 31.856250000007424 40.522105193646965 40.10953059726431
    vertex 46.14375000000743 39.99999999999999 40.143749999998406
    vertex 31.85625000000743 39.99999999999999 40.143750000001624
  endloop
endfacet
facet normal -2.2494815370298744e-13 -0.06540088438040732 -0.9978590703712928
  outer loop
    vertex 46.14375000000743 39.99999999999999 40.143749999998406
    vertex 31.856250000007424 40.522105193646965 40.10953059726431
    vertex 46.14375000000742 40.522105193646965 40.10953059726109
  endloop
endfacet
facet normal -2.2543078515013809e-13 0.0 -1.0
  outer loop
    vertex 31.85625000000743 39.99999999999999 40.143750000001624
    vertex 46.14375000000743 10.000000000000002 40.143749999998406
    vertex 31.85625000000743 10.000000000000002 40.143750000001624
  endloop
endfacet
facet normal -2.2543078515013809e-13 0.0 -1.0
  outer loop
    vertex 46.14375000000743 10.000000000000002 40.143749999998406
    vertex 31.85625000000743 39.99999999999999 40.143750000001624
    vertex 46.14375000000743 39.99999999999999 40.143749999998406
  endloop
endfacet
facet normal -2.2494815370298744e-13 0.06540088438040902 -0.9978590703712928
  outer loop
    vertex 31.85625000000743 10.000000000000002 40.143750000001624
    vertex 46.14375000000742 9.47789480635303 40.10953059726109
    vertex 31.856250000007424 9.47789480635303 40.10953059726431
  endloop
endfacet
facet normal -2.235022537099003e-13 0.1305241645651701 -0.9914451283175305
  outer loop
    vertex 46.14375000000742 9.47789480635303 40.10953059726109
    vertex 31.85625000000743 10.000000000000002 40.143750000001624
    vertex 46.14375000000743 10.000000000000002 40.143749999998406
  endloop
endfacet
facet normal -2.235022537099003e-13 0.1305241645651701 -0.9914451283175305
  outer loop
    vertex 31.856250000007424 9.47789480635303 40.10953059726431
    vertex 46.143750000007394 8.964722865106337 40.00745533349
    vertex 31.856250000007403 8.964722865106337 40.00745533349322
  endloop
endfacet
facet normal -2.1774951287760174e-13 0.2588174647307153 -0.9659262497470318
  outer loop
    vertex 46.143750000007394 8.964722865106337 40.00745533349
    vertex 31.856250000007424 9.47789480635303 40.10953059726431
    vertex 46.14375000000742 9.47789480635303 40.10953059726109
  endloop
endfacet
facet normal -2.1774951287760174e-13 0.2588174647307153 -0.9659262497470318
  outer loop
    vertex 31.856250000007403 8.964722865106337 40.00745533349322
    vertex 46.14375000000736 8.46926474524851 39.83927075564831
    vertex 31.856250000007364 8.46926474524851 39.83927075565153
  endloop
endfacet
facet normal -2.0827099425743426e-13 0.38268229868082243 -0.9238800020978709
  outer loop
    vertex 46.14375000000736 8.46926474524851 39.83927075564831
    vertex 31.856250000007403 8.964722865106337 40.00745533349322
    vertex 46.143750000007394 8.964722865106337 40.00745533349
  endloop
endfacet
facet normal -2.0827099425743426e-13 0.38268229868082243 -0.9238800020978709
  outer loop
    vertex 31.856250000007364 8.46926474524851 39.83927075565153
    vertex 46.14375000000731 7.99999792548153 39.60785456645096
    vertex 31.85625000000731 7.99999792548153 39.607854566454186
  endloop
endfacet
facet normal -1.9522887894303253e-13 0.49999929153868855 -0.8660258128143814
  outer loop
    vertex 46.14375000000731 7.99999792548153 39.60785456645096
    vertex 31.856250000007364 8.46926474524851 39.83927075565153
    vertex 46.14375000000736 8.46926474524851 39.83927075564831
  endloop
endfacet
facet normal -1.9522887894303253e-13 0.49999929153868855 -0.8660258128143814
  outer loop
    vertex 31.85625000000731 7.99999792548153 39.607854566454186
    vertex 46.143750000007245 7.56495174130455 39.31716638576608
    vertex 31.856250000007243 7.56495174130455 39.3171663857693
  endloop
endfacet
facet normal -1.7884632253600052e-13 0.6087611045031691 -0.7933535892929972
  outer loop
    vertex 46.143750000007245 7.56495174130455 39.31716638576608
    vertex 31.85625000000731 7.99999792548153 39.607854566454186
    vertex 46.14375000000731 7.99999792548153 39.60785456645096
  endloop
endfacet
facet normal -1.7884632253600052e-13 0.6087611045031691 -0.7933535892929972
  outer loop
    vertex 31.856250000007243 7.56495174130455 39.3171663857693
    vertex 46.14375000000717 7.171570000000001 38.97217999999841
    vertex 31.856250000007165 7.171570000000001 38.97218000000163
  endloop
endfacet
facet normal -1.594036368678705e-13 0.7071067811865468 -0.7071067811865483
  outer loop
    vertex 46.14375000000717 7.171570000000001 38.97217999999841
    vertex 31.856250000007243 7.56495174130455 39.3171663857693
    vertex 46.143750000007245 7.56495174130455 39.31716638576608
  endloop
endfacet
facet normal -1.594036368678705e-13 0.7071067811865468 -0.7071067811865483
  outer loop
    vertex 46.14375000000717 7.171570000000001 38.97217999999841
    vertex 31.85625000000708 6.826583614232329 38.57879825869708
    vertex 31.856250000007165 7.171570000000001 38.97218000000163
  endloop
endfacet
facet normal -1.3723349375701481e-13 0.7933535892929969 -0.6087611045031697
  outer loop
    vertex 31.85625000000708 6.826583614232329 38.57879825869708
    vertex 46.14375000000717 7.171570000000001 38.97217999999841
    vertex 46.14375000000708 6.826583614232329 38.57879825869386
  endloop
endfacet
facet normal -1.3723349375701481e-13 0.7933535892929969 -0.6087611045031697
  outer loop
    vertex 46.14375000000708 6.826583614232329 38.57879825869386
    vertex 31.85625000000698 6.535895433547445 38.1437520745201
    vertex 31.85625000000708 6.826583614232329 38.57879825869708
  endloop
endfacet
facet normal -1.1271523286607939e-13 0.8660258128143812 -0.4999992915386887
  outer loop
    vertex 31.85625000000698 6.535895433547445 38.1437520745201
    vertex 46.14375000000708 6.826583614232329 38.57879825869386
    vertex 46.143750000006975 6.535895433547445 38.14375207451688
  endloop
endfacet
facet normal -1.1271523286607939e-13 0.8660258128143812 -0.4999992915386887
  outer loop
    vertex 46.143750000006975 6.535895433547445 38.14375207451688
    vertex 31.85625000000687 6.3044792443500945 37.67448525475312
    vertex 31.85625000000698 6.535895433547445 38.1437520745201
  endloop
endfacet
facet normal -8.626837105467781e-14 0.9238800020978701 -0.382682298680824
  outer loop
    vertex 31.85625000000687 6.3044792443500945 37.67448525475312
    vertex 46.143750000006975 6.535895433547445 38.14375207451688
    vertex 46.143750000006875 6.3044792443500945 37.6744852547499
  endloop
endfacet
facet normal -8.626837105467763e-14 -0.9238800020978706 -0.3826822986808232
  outer loop
    vertex 46.143750000006875 43.69552075564991 37.6744852547499
    vertex 31.85625000000698 43.46410456645256 38.1437520745201
    vertex 31.85625000000687 43.69552075564991 37.67448525475312
  endloop
endfacet
facet normal -1.1271523286607988e-13 -0.86602581281438 -0.4999992915386909
  outer loop
    vertex 31.85625000000698 43.46410456645256 38.1437520745201
    vertex 46.143750000006875 43.69552075564991 37.6744852547499
    vertex 46.143750000006975 43.46410456645256 38.14375207451688
  endloop
endfacet
facet normal -5.834542428481259e-14 -0.9659262497470327 -0.25881746473071204
  outer loop
    vertex 46.14375000000676 43.8637053334916 37.179027134892074
    vertex 31.85625000000687 43.69552075564991 37.67448525475312
    vertex 31.856250000006764 43.8637053334916 37.17902713489529
  endloop
endfacet
facet normal -8.626837105467763e-14 -0.9238800020978706 -0.3826822986808232
  outer loop
    vertex 31.85625000000687 43.69552075564991 37.67448525475312
    vertex 46.14375000000676 43.8637053334916 37.179027134892074
    vertex 46.143750000006875 43.69552075564991 37.6744852547499
  endloop
endfacet
facet normal -7.787299867134278e-14 0.938440530598744 -0.34544083506376005
  outer loop
    vertex 46.143749999992245 46.850945586132696 -27.1970624720813
    vertex 31.85624999999209 46.54207394535109 -27.912648442202745
    vertex 31.856249999992254 46.850945586132696 -27.197062472078073
  endloop
endfacet
facet normal -1.0053279852762135e-13 0.8950535863270609 -0.4459586052573342
  outer loop
    vertex 31.85624999999209 46.54207394535109 -27.912648442202745
    vertex 46.143749999992245 46.850945586132696 -27.1970624720813
    vertex 46.14374999999209 46.54207394535109 -27.91264844220597
  endloop
endfacet
facet normal -1.0053279852762135e-13 0.8950535863270609 -0.4459586052573342
  outer loop
    vertex 46.14374999999209 46.54207394535109 -27.91264844220597
    vertex 31.856249999991938 46.15682729006851 -28.59018071871214
    vertex 31.85624999999209 46.54207394535109 -27.912648442202745
  endloop
endfacet
facet normal -1.2198758722225812e-13 0.8409383068494743 -0.5411310045387712
  outer loop
    vertex 31.856249999991938 46.15682729006851 -28.59018071871214
    vertex 46.14374999999209 46.54207394535109 -27.91264844220597
    vertex 46.14374999999194 46.15682729006851 -28.590180718715366
  endloop
endfacet
facet normal 1.3723349375701512e-13 0.7933535892929957 0.6087611045031711
  outer loop
    vertex 46.14374999999223 6.826583614232334 -27.29129825869705
    vertex 31.85624999999214 7.1715700000000036 -27.684679999998362
    vertex 31.85624999999223 6.826583614232334 -27.291298258693825
  endloop
endfacet
facet normal 1.594036368678702e-13 0.7071067811865482 0.707106781186547
  outer loop
    vertex 31.85624999999214 7.1715700000000036 -27.684679999998362
    vertex 46.14374999999223 6.826583614232334 -27.29129825869705
    vertex 46.14374999999214 7.1715700000000036 -27.68468000000159
  endloop
endfacet
facet normal 1.7884632253599974e-13 0.6087611045031739 0.7933535892929936
  outer loop
    vertex 46.14374999999207 7.5649517413045535 -28.029666385769268
    vertex 31.85624999999214 7.1715700000000036 -27.684679999998362
    vertex 46.14374999999214 7.1715700000000036 -27.68468000000159
  endloop
endfacet
facet normal 1.594036368678702e-13 0.7071067811865482 0.707106781186547
  outer loop
    vertex 31.85624999999214 7.1715700000000036 -27.684679999998362
    vertex 46.14374999999207 7.5649517413045535 -28.029666385769268
    vertex 31.856249999992063 7.5649517413045535 -28.029666385766042
  endloop
endfacet
facet normal 1.9522887894303255e-13 0.499999291538688 0.8660258128143815
  outer loop
    vertex 46.143749999991996 7.999997925481533 -28.320354566454153
    vertex 31.856249999992063 7.5649517413045535 -28.029666385766042
    vertex 46.14374999999207 7.5649517413045535 -28.029666385769268
  endloop
endfacet
facet normal 1.7884632253599974e-13 0.6087611045031739 0.7933535892929936
  outer loop
    vertex 31.856249999992063 7.5649517413045535 -28.029666385766042
    vertex 46.143749999991996 7.999997925481533 -28.320354566454153
    vertex 31.856249999992 7.999997925481533 -28.320354566450927
  endloop
endfacet
facet normal 0.0 1.0 0.0
  outer loop
    vertex 46.14375000000653 6.0 36.143749999998406
    vertex 31.856249999992777 6.0 -24.85624999999837
    vertex 31.85625000000653 6.0 36.143750000001624
  endloop
endfacet
facet normal 0.0 1.0 0.0
  outer loop
    vertex 31.856249999992777 6.0 -24.85624999999837
    vertex 46.14375000000653 6.0 36.143749999998406
    vertex 46.14374999999278 6.0 -24.856250000001594
  endloop
endfacet
facet normal -1.9089326077796867e-13 0.5319222124109346 -0.846793221479634
  outer loop
    vertex 31.856249999991448 43.956941824074796 -30.766189931997186
    vertex 46.143749999991364 43.27524596066664 -31.14402021259027
    vertex 31.856249999991363 43.27524596066664 -31.144020212587044
  endloop
endfacet
facet normal -2.0285766323308609e-13 0.43616495751669787 -0.8998667289295995
  outer loop
    vertex 46.143749999991364 43.27524596066664 -31.14402021259027
    vertex 31.856249999991448 43.956941824074796 -30.766189931997186
    vertex 46.14374999999144 43.956941824074796 -30.76618993200041
  endloop
endfacet
facet normal -2.0285766323308609e-13 0.43616495751669787 -0.8998667289295995
  outer loop
    vertex 31.856249999991363 43.27524596066664 -31.144020212587044
    vertex 46.143749999991286 42.556332096611335 -31.445064772726262
    vertex 31.856249999991295 42.556332096611335 -31.445064772723036
  endloop
endfacet
facet normal -2.123905632133845e-13 0.3351797208113196 -0.9421542096476808
  outer loop
    vertex 46.143749999991286 42.556332096611335 -31.445064772726262
    vertex 31.856249999991363 43.27524596066664 -31.144020212587044
    vertex 46.143749999991364 43.27524596066664 -31.14402021259027
  endloop
endfacet
facet normal -2.123905632133845e-13 0.3351797208113196 -0.9421542096476808
  outer loop
    vertex 31.856249999991295 42.556332096611335 -31.445064772723036
    vertex 46.14374999999124 41.80881731253465 -31.665715217333076
    vertex 31.856249999991242 41.80881731253465 -31.66571521732985
  endloop
endfacet
facet normal -2.1937769700545468e-13 0.23017693649313056 -0.9731487953579542
  outer loop
    vertex 46.14374999999124 41.80881731253465 -31.665715217333076
    vertex 31.856249999991295 42.556332096611335 -31.445064772723036
    vertex 46.143749999991286 42.556332096611335 -31.445064772726262
  endloop
endfacet
facet normal -2.1937769700545468e-13 0.23017693649313056 -0.9731487953579542
  outer loop
    vertex 31.856249999991242 41.80881731253465 -31.66571521732985
    vertex 46.14374999999121 41.041661506813 -31.8033267752269
    vertex 31.85624999999121 41.041661506813 -31.803326775223674
  endloop
endfacet
facet normal -2.2373531508346363e-13 0.12241519408675156 -0.9924789772366482
  outer loop
    vertex 46.14374999999121 41.041661506813 -31.8033267752269
    vertex 31.856249999991242 41.80881731253465 -31.66571521732985
    vertex 46.14374999999124 41.80881731253465 -31.665715217333076
  endloop
endfacet
facet normal -2.2373531508346363e-13 0.12241519408675156 -0.9924789772366482
  outer loop
    vertex 31.85624999999121 41.041661506813 -31.803326775223674
    vertex 46.1437499999912 40.26406 -31.856250000001594
    vertex 31.8562499999912 40.26406 -31.856249999998365
  endloop
endfacet
facet normal -2.2491048247366081e-13 0.06790248672559261 -0.9976919626299897
  outer loop
    vertex 46.1437499999912 40.26406 -31.856250000001594
    vertex 31.85624999999121 41.041661506813 -31.803326775223674
    vertex 46.14374999999121 41.041661506813 -31.8033267752269
  endloop
endfacet
facet normal 2.2543078515013809e-13 0.0 1.0
  outer loop
    vertex 46.143749999991876 39.99999999999999 -28.856250000001598
    vertex 31.856249999991874 10.000000000000002 -28.856249999998372
    vertex 46.143749999991876 10.000000000000002 -28.856250000001598
  endloop
endfacet
facet normal 2.2543078515013809e-13 0.0 1.0
  outer loop
    vertex 31.856249999991874 10.000000000000002 -28.856249999998372
    vertex 46.143749999991876 39.99999999999999 -28.856250000001598
    vertex 31.856249999991874 39.99999999999999 -28.856249999998372
  endloop
endfacet
facet normal 2.2350225370990042e-13 -0.13052416456516555 0.9914451283175311
  outer loop
    vertex 46.14374999999188 40.522105193646965 -28.822030597264284
    vertex 31.856249999991874 39.99999999999999 -28.856249999998372
    vertex 46.143749999991876 39.99999999999999 -28.856250000001598
  endloop
endfacet
facet normal 2.249481537029874e-13 -0.06540088438040936 0.9978590703712926
  outer loop
    vertex 31.856249999991874 39.99999999999999 -28.856249999998372
    vertex 46.14374999999188 40.522105193646965 -28.822030597264284
    vertex 31.856249999991885 40.522105193646965 -28.822030597261058
  endloop
endfacet
facet normal 2.1774951287760162e-13 -0.2588174647307169 0.9659262497470312
  outer loop
    vertex 46.14374999999191 41.03527713489366 -28.7199553334932
    vertex 31.856249999991885 40.522105193646965 -28.822030597261058
    vertex 46.14374999999188 40.522105193646965 -28.822030597264284
  endloop
endfacet
facet normal 2.2350225370990042e-13 -0.13052416456516555 0.9914451283175311
  outer loop
    vertex 31.856249999991885 40.522105193646965 -28.822030597261058
    vertex 46.14374999999191 41.03527713489366 -28.7199553334932
    vertex 31.85624999999191 41.03527713489366 -28.719955333489974
  endloop
endfacet
facet normal 2.0827099425743353e-13 -0.38268229868083 0.9238800020978677
  outer loop
    vertex 46.14374999999194 41.530735254751484 -28.551770755651503
    vertex 31.85624999999191 41.03527713489366 -28.719955333489974
    vertex 46.14374999999191 41.03527713489366 -28.7199553334932
  endloop
endfacet
facet normal 2.1774951287760162e-13 -0.2588174647307169 0.9659262497470312
  outer loop
    vertex 31.85624999999191 41.03527713489366 -28.719955333489974
    vertex 46.14374999999194 41.530735254751484 -28.551770755651503
    vertex 31.85624999999194 41.530735254751484 -28.551770755648278
  endloop
endfacet
facet normal 1.9522887894303248e-13 -0.4999992915386885 0.8660258128143812
  outer loop
    vertex 46.143749999991996 42.00000207451846 -28.320354566454153
    vertex 31.85624999999194 41.530735254751484 -28.551770755648278
    vertex 46.14374999999194 41.530735254751484 -28.551770755651503
  endloop
endfacet
facet normal 2.0827099425743353e-13 -0.38268229868083 0.9238800020978677
  outer loop
    vertex 31.85624999999194 41.530735254751484 -28.551770755648278
    vertex 46.143749999991996 42.00000207451846 -28.320354566454153
    vertex 31.856249999992 42.00000207451846 -28.320354566450927
  endloop
endfacet
facet normal 1.7884632253600108e-13 -0.6087611045031661 0.7933535892929996
  outer loop
    vertex 46.14374999999207 42.435048258695446 -28.029666385769268
    vertex 31.856249999992 42.00000207451846 -28.320354566450927
    vertex 46.143749999991996 42.00000207451846 -28.320354566454153
  endloop
endfacet
facet normal 1.9522887894303248e-13 -0.4999992915386885 0.8660258128143812
  outer loop
    vertex 31.856249999992 42.00000207451846 -28.320354566450927
    vertex 46.14374999999207 42.435048258695446 -28.029666385769268
    vertex 31.856249999992063 42.435048258695446 -28.029666385766042
  endloop
endfacet
facet normal 1.5940363686787032e-13 -0.7071067811865476 0.7071067811865476
  outer loop
    vertex 46.14374999999214 42.82843 -27.6846800000016
    vertex 31.856249999992063 42.435048258695446 -28.029666385766042
    vertex 46.14374999999207 42.435048258695446 -28.029666385769268
  endloop
endfacet
facet normal 1.7884632253600108e-13 -0.6087611045031661 0.7933535892929996
  outer loop
    vertex 31.856249999992063 42.435048258695446 -28.029666385766042
    vertex 46.14374999999214 42.82843 -27.6846800000016
    vertex 31.85624999999214 42.82843 -27.684679999998373
  endloop
endfacet
facet normal 1.5940363686787032e-13 -0.7071067811865476 0.7071067811865476
  outer loop
    vertex 46.14374999999214 42.82843 -27.6846800000016
    vertex 31.85624999999223 43.173416385767666 -27.291298258693825
    vertex 31.85624999999214 42.82843 -27.684679999998373
  endloop
endfacet
facet normal 1.3723349375701345e-13 -0.7933535892930014 0.6087611045031637
  outer loop
    vertex 31.85624999999223 43.173416385767666 -27.291298258693825
    vertex 46.14374999999214 42.82843 -27.6846800000016
    vertex 46.14374999999223 43.173416385767666 -27.29129825869705
  endloop
endfacet
facet normal 1.3723349375701345e-13 -0.7933535892930014 0.6087611045031637
  outer loop
    vertex 46.14374999999223 43.173416385767666 -27.29129825869705
    vertex 31.856249999992325 43.46410456645255 -26.85625207451684
    vertex 31.85624999999223 43.173416385767666 -27.291298258693825
  endloop
endfacet
facet normal 1.1271523286607972e-13 -0.8660258128143804 0.49999929153869016
  outer loop
    vertex 31.856249999992325 43.46410456645255 -26.85625207451684
    vertex 46.14374999999223 43.173416385767666 -27.29129825869705
    vertex 46.14374999999232 43.46410456645255 -26.856252074520064
  endloop
endfacet
facet normal 1.1271523286607972e-13 -0.8660258128143804 0.49999929153869016
  outer loop
    vertex 46.14374999999232 43.46410456645255 -26.856252074520064
    vertex 31.856249999992432 43.6955207556499 -26.38698525474986
    vertex 31.856249999992325 43.46410456645255 -26.85625207451684
  endloop
endfacet
facet normal 8.626837105467804e-14 -0.9238800020978699 0.38268229868082504
  outer loop
    vertex 31.856249999992432 43.6955207556499 -26.38698525474986
    vertex 46.14374999999232 43.46410456645255 -26.856252074520064
    vertex 46.14374999999243 43.6955207556499 -26.386985254753085
  endloop
endfacet
facet normal 8.626837105467804e-14 -0.9238800020978699 0.38268229868082504
  outer loop
    vertex 46.14374999999243 43.6955207556499 -26.386985254753085
    vertex 31.856249999992546 43.86370533349159 -25.891527134892034
    vertex 31.856249999992432 43.6955207556499 -26.38698525474986
  endloop
endfacet
facet normal 5.834542428481399e-14 -0.965926249747031 0.25881746473071826
  outer loop
    vertex 31.856249999992546 43.86370533349159 -25.891527134892034
    vertex 46.14374999999243 43.6955207556499 -26.386985254753085
    vertex 46.14374999999254 43.86370533349159 -25.89152713489526
  endloop
endfacet
facet normal 5.834542428481399e-14 -0.965926249747031 0.25881746473071826
  outer loop
    vertex 46.14374999999254 43.86370533349159 -25.89152713489526
    vertex 31.85624999999266 43.965780597262686 -25.37835519364534
    vertex 31.856249999992546 43.86370533349159 -25.891527134892034
  endloop
endfacet
facet normal 2.942416489899363e-14 -0.9914451283175297 0.13052416456517676
  outer loop
    vertex 31.85624999999266 43.965780597262686 -25.37835519364534
    vertex 46.14374999999254 43.86370533349159 -25.89152713489526
    vertex 46.14374999999266 43.965780597262686 -25.378355193648567
  endloop
endfacet
facet normal -1.2198758722225812e-13 0.8409383068494743 -0.5411310045387712
  outer loop
    vertex 46.14374999999194 46.15682729006851 -28.590180718715366
    vertex 31.856249999991796 45.69982328264393 -29.221538230995208
    vertex 31.856249999991938 46.15682729006851 -28.59018071871214
  endloop
endfacet
facet normal -1.4198020231447312e-13 0.7767433313836449 -0.6298172728268393
  outer loop
    vertex 31.856249999991796 45.69982328264393 -29.221538230995208
    vertex 46.14374999999194 46.15682729006851 -28.590180718715366
    vertex 46.1437499999918 45.69982328264393 -29.221538230998434
  endloop
endfacet
facet normal -1.4198020231447312e-13 0.7767433313836449 -0.6298172728268393
  outer loop
    vertex 46.1437499999918 45.69982328264393 -29.221538230998434
    vertex 31.856249999991668 45.176539686930795 -29.799153370665156
    vertex 31.856249999991796 45.69982328264393 -29.221538230995208
  endloop
endfacet
facet normal -1.6027100734045286e-13 0.7032381168937709 -0.7109543944218245
  outer loop
    vertex 31.856249999991668 45.176539686930795 -29.799153370665156
    vertex 46.1437499999918 45.69982328264393 -29.221538230998434
    vertex 46.14374999999166 45.176539686930795 -29.79915337066838
  endloop
endfacet
facet normal -1.6027100734045286e-13 0.7032381168937709 -0.7109543944218245
  outer loop
    vertex 31.856249999991668 45.176539686930795 -29.799153370665156
    vertex 46.14374999999155 44.59324871043525 -30.316102698801487
    vertex 31.856249999991547 44.59324871043525 -30.31610269879826
  endloop
endfacet
facet normal -1.7664076415568747e-13 0.6213037151877753 -0.7835698395764527
  outer loop
    vertex 46.14374999999155 44.59324871043525 -30.316102698801487
    vertex 31.856249999991668 45.176539686930795 -29.799153370665156
    vertex 46.14374999999166 45.176539686930795 -29.79915337066838
  endloop
endfacet
facet normal -1.7664076415568747e-13 0.6213037151877753 -0.7835698395764527
  outer loop
    vertex 31.856249999991547 44.59324871043525 -30.31610269879826
    vertex 46.14374999999144 43.956941824074796 -30.76618993200041
    vertex 31.856249999991448 43.956941824074796 -30.766189931997186
  endloop
endfacet
facet normal -1.9089326077796867e-13 0.5319222124109346 -0.846793221479634
  outer loop
    vertex 46.14374999999144 43.956941824074796 -30.76618993200041
    vertex 31.856249999991547 44.59324871043525 -30.31610269879826
    vertex 46.14374999999155 44.59324871043525 -30.316102698801487
  endloop
endfacet
facet normal 2.942416489899363e-14 -0.9914451283175297 0.13052416456517676
  outer loop
    vertex 46.14374999999266 43.965780597262686 -25.378355193648567
    vertex 31.856249999992777 44.0 -24.85624999999837
    vertex 31.85624999999266 43.965780597262686 -25.37835519364534
  endloop
endfacet
facet normal 1.474337271538893e-14 -0.9978590703712928 0.06540088438040867
  outer loop
    vertex 31.856249999992777 44.0 -24.85624999999837
    vertex 46.14374999999266 43.965780597262686 -25.378355193648567
    vertex 46.14374999999278 44.0 -24.856250000001594
  endloop
endfacet
facet normal 0.0 -1.0 0.0
  outer loop
    vertex 46.14374999999278 44.0 -24.856250000001594
    vertex 31.85625000000653 44.0 36.143750000001624
    vertex 31.856249999992777 44.0 -24.85624999999837
  endloop
endfacet
facet normal 0.0 -1.0 0.0
  outer loop
    vertex 31.85625000000653 44.0 36.143750000001624
    vertex 46.14374999999278 44.0 -24.856250000001594
    vertex 46.14375000000653 44.0 36.143749999998406
  endloop
endfacet
facet normal -1.4743372715389008e-14 -0.9978590703712928 -0.06540088438040902
  outer loop
    vertex 46.14375000000653 44.0 36.143749999998406
    vertex 31.856250000006646 43.965780597262686 36.6658551936486
    vertex 31.85625000000653 44.0 36.143750000001624
  endloop
endfacet
facet normal -2.9424164898991186e-14 -0.9914451283175311 -0.1305241645651659
  outer loop
    vertex 31.856250000006646 43.965780597262686 36.6658551936486
    vertex 46.14375000000653 44.0 36.143749999998406
    vertex 46.14375000000665 43.965780597262686 36.66585519364538
  endloop
endfacet
facet normal -2.9424164898991186e-14 -0.9914451283175311 -0.1305241645651659
  outer loop
    vertex 46.14375000000665 43.965780597262686 36.66585519364538
    vertex 31.856250000006764 43.8637053334916 37.17902713489529
    vertex 31.856250000006646 43.965780597262686 36.6658551936486
  endloop
endfacet
facet normal -5.834542428481259e-14 -0.9659262497470327 -0.25881746473071204
  outer loop
    vertex 31.856250000006764 43.8637053334916 37.17902713489529
    vertex 46.14375000000665 43.965780597262686 36.66585519364538
    vertex 46.14375000000676 43.8637053334916 37.179027134892074
  endloop
endfacet
facet normal 1.474337271538953e-14 0.9978590703712926 0.06540088438041135
  outer loop
    vertex 46.14374999999278 6.0 -24.856250000001594
    vertex 31.85624999999266 6.034219402737316 -25.37835519364534
    vertex 31.856249999992777 6.0 -24.85624999999837
  endloop
endfacet
facet normal 2.9424164898992884e-14 0.9914451283175302 0.13052416456517346
  outer loop
    vertex 31.85624999999266 6.034219402737316 -25.37835519364534
    vertex 46.14374999999278 6.0 -24.856250000001594
    vertex 46.14374999999266 6.034219402737316 -25.378355193648567
  endloop
endfacet
facet normal 8.626837105467823e-14 0.9238800020978696 0.38268229868082587
  outer loop
    vertex 46.14374999999243 6.304479244350098 -26.386985254753085
    vertex 31.856249999992325 6.535895433547448 -26.85625207451684
    vertex 31.856249999992432 6.304479244350098 -26.38698525474986
  endloop
endfacet
facet normal 1.1271523286607906e-13 0.866025812814382 0.4999992915386873
  outer loop
    vertex 31.856249999992325 6.535895433547448 -26.85625207451684
    vertex 46.14374999999243 6.304479244350098 -26.386985254753085
    vertex 46.14374999999232 6.535895433547448 -26.856252074520064
  endloop
endfacet
facet normal 5.83454242848141e-14 0.9659262497470309 0.25881746473071876
  outer loop
    vertex 46.14374999999254 6.136294666508407 -25.89152713489526
    vertex 31.856249999992432 6.304479244350098 -26.38698525474986
    vertex 31.856249999992546 6.136294666508407 -25.891527134892034
  endloop
endfacet
facet normal 8.626837105467823e-14 0.9238800020978696 0.38268229868082587
  outer loop
    vertex 31.856249999992432 6.304479244350098 -26.38698525474986
    vertex 46.14374999999254 6.136294666508407 -25.89152713489526
    vertex 46.14374999999243 6.304479244350098 -26.386985254753085
  endloop
endfacet
facet normal 2.9424164898992884e-14 0.9914451283175302 0.13052416456517346
  outer loop
    vertex 46.14374999999266 6.034219402737316 -25.378355193648567
    vertex 31.856249999992546 6.136294666508407 -25.891527134892034
    vertex 31.85624999999266 6.034219402737316 -25.37835519364534
  endloop
endfacet
facet normal 5.83454242848141e-14 0.9659262497470309 0.25881746473071876
  outer loop
    vertex 31.856249999992546 6.136294666508407 -25.891527134892034
    vertex 46.14374999999266 6.034219402737316 -25.378355193648567
    vertex 46.14374999999254 6.136294666508407 -25.89152713489526
  endloop
endfacet
facet normal -2.249714386712683e-13 -0.06380537056028224 -0.9979623613582154
  outer loop
    vertex 31.8562499999912 9.73594 -31.856249999998365
    vertex 46.14374999999121 8.844494751747662 -31.799254870123615
    vertex 31.856249999991217 8.844494751747662 -31.79925487012039
  endloop
endfacet
facet normal -2.2359529032085849e-13 -0.12735005589916254 -0.991857834199277
  outer loop
    vertex 46.14374999999121 8.844494751747662 -31.799254870123615
    vertex 31.8562499999912 9.73594 -31.856249999998365
    vertex 46.1437499999912 9.73594 -31.856250000001594
  endloop
endfacet
facet normal 1.1271523286607906e-13 0.866025812814382 0.4999992915386873
  outer loop
    vertex 46.14374999999232 6.535895433547448 -26.856252074520064
    vertex 31.85624999999223 6.826583614232334 -27.291298258693825
    vertex 31.856249999992325 6.535895433547448 -26.85625207451684
  endloop
endfacet
facet normal 1.3723349375701512e-13 0.7933535892929957 0.6087611045031711
  outer loop
    vertex 31.85624999999223 6.826583614232334 -27.291298258693825
    vertex 46.14374999999232 6.535895433547448 -26.856252074520064
    vertex 46.14374999999223 6.826583614232334 -27.29129825869705
  endloop
endfacet
facet normal -2.1811873357179496e-13 -0.2526256567957191 -0.9675640947908989
  outer loop
    vertex 31.85624999999125 7.967566018215785 -31.629198785937383
    vertex 46.14374999999131 7.119433848923702 -31.348850968268724
    vertex 31.856249999991316 7.119433848923702 -31.348850968265495
  endloop
endfacet
facet normal -2.090902960399521e-13 -0.37378746058316764 -0.9275143849616496
  outer loop
    vertex 46.14374999999131 7.119433848923702 -31.348850968268724
    vertex 31.85624999999125 7.967566018215785 -31.629198785937383
    vertex 46.14374999999125 7.967566018215785 -31.62919878594061
  endloop
endfacet
facet normal 1.0 0.0 -2.2543078515013809e-13
  outer loop
    vertex 46.14375000000878 0.0 46.143749999998406
    vertex 46.14375000000742 9.47789480635303 40.10953059726109
    vertex 46.14375000000878 50.0 46.143749999998406
  endloop
endfacet
facet normal 1.0 0.0 -2.2543078515013809e-13
  outer loop
    vertex 46.14375000000742 9.47789480635303 40.10953059726109
    vertex 46.14375000000878 0.0 46.143749999998406
    vertex 46.143750000007394 8.964722865106337 40.00745533349
  endloop
endfacet
facet normal 1.0 0.0 -2.2543078515013809e-13
  outer loop
    vertex 46.143750000007394 8.964722865106337 40.00745533349
    vertex 46.14375000000878 0.0 46.143749999998406
    vertex 46.14375000000736 8.46926474524851 39.83927075564831
  endloop
endfacet
facet normal 1.0 0.0 -2.2543078515013809e-13
  outer loop
    vertex 46.14375000000736 8.46926474524851 39.83927075564831
    vertex 46.14375000000878 0.0 46.143749999998406
    vertex 46.14375000000731 7.99999792548153 39.60785456645096
  endloop
endfacet
facet normal 1.0 0.0 -2.2543078515013809e-13
  outer loop
    vertex 46.14375000000731 7.99999792548153 39.60785456645096
    vertex 46.14375000000878 0.0 46.143749999998406
    vertex 46.143750000007245 7.56495174130455 39.31716638576608
  endloop
endfacet
facet normal 1.0 0.0 -2.2543078515013809e-13
  outer loop
    vertex 46.143750000007245 7.56495174130455 39.31716638576608
    vertex 46.14375000000878 0.0 46.143749999998406
    vertex 46.14375000000717 7.171570000000001 38.97217999999841
  endloop
endfacet
facet normal 1.0 0.0 -2.2543078515013809e-13
  outer loop
    vertex 46.14375000000717 7.171570000000001 38.97217999999841
    vertex 46.14375000000878 0.0 46.143749999998406
    vertex 46.14375000000708 6.826583614232329 38.57879825869386
  endloop
endfacet
facet normal 1.0 0.0 -2.2543078515013809e-13
  outer loop
    vertex 46.14375000000708 6.826583614232329 38.57879825869386
    vertex 46.14375000000878 0.0 46.143749999998406
    vertex 46.143750000006975 6.535895433547445 38.14375207451688
  endloop
endfacet
facet normal 1.0 0.0 -2.2543078515013809e-13
  outer loop
    vertex 46.143750000006975 6.535895433547445 38.14375207451688
    vertex 46.14375000000878 0.0 46.143749999998406
    vertex 46.143750000006875 6.3044792443500945 37.6744852547499
  endloop
endfacet
facet normal 1.0 0.0 -2.2543078515013809e-13
  outer loop
    vertex 46.143750000006875 6.3044792443500945 37.6744852547499
    vertex 46.14375000000878 0.0 46.143749999998406
    vertex 46.14375000000676 6.1362946665084035 37.179027134892074
  endloop
endfacet
facet normal 1.0 0.0 -2.2543078515013809e-13
  outer loop
    vertex 46.14375000000676 6.1362946665084035 37.179027134892074
    vertex 46.14375000000878 0.0 46.143749999998406
    vertex 46.14375000000665 6.034219402737314 36.66585519364538
  endloop
endfacet
facet normal 1.0 0.0 -2.2543078515013809e-13
  outer loop
    vertex 46.14375000000665 6.034219402737314 36.66585519364538
    vertex 46.14375000000878 0.0 46.143749999998406
    vertex 46.14375000000653 6.0 36.143749999998406
  endloop
endfacet
facet normal 1.0 0.0 -2.2543078515013809e-13
  outer loop
    vertex 46.14375000000653 6.0 36.143749999998406
    vertex 46.14375000000878 0.0 46.143749999998406
    vertex 46.14374999999272 2.741119999999999 -25.125280000001588
  endloop
endfacet
facet normal 1.0 0.0 -2.2543078515013809e-13
  outer loop
    vertex 46.14375000000878 50.0 46.143749999998406
    vertex 46.14375000000742 9.47789480635303 40.10953059726109
    vertex 46.14375000000743 10.000000000000002 40.143749999998406
  endloop
endfacet
facet normal 1.0 0.0 -2.2543078515013809e-13
  outer loop
    vertex 46.14375000000653 6.0 36.143749999998406
    vertex 46.14374999999272 2.741119999999999 -25.125280000001588
    vertex 46.14374999999278 6.0 -24.856250000001594
  endloop
endfacet
facet normal 1.0 0.0 -2.2543078515013809e-13
  outer loop
    vertex 46.14374999999278 6.0 -24.856250000001594
    vertex 46.14374999999272 2.741119999999999 -25.125280000001588
    vertex 46.14374999999266 6.034219402737316 -25.378355193648567
  endloop
endfacet
facet normal 1.0 0.0 -2.2543078515013809e-13
  outer loop
    vertex 46.14374999999266 6.034219402737316 -25.378355193648567
    vertex 46.14374999999272 2.741119999999999 -25.125280000001588
    vertex 46.143749999992515 2.8323327560587375 -26.013876257361282
  endloop
endfacet
facet normal 1.0 0.0 -2.2543078515013809e-13
  outer loop
    vertex 46.14374999999266 6.034219402737316 -25.378355193648567
    vertex 46.143749999992515 2.8323327560587375 -26.013876257361282
    vertex 46.14374999999254 6.136294666508407 -25.89152713489526
  endloop
endfacet
facet normal 1.0 0.0 -2.2543078515013809e-13
  outer loop
    vertex 46.14374999999254 6.136294666508407 -25.89152713489526
    vertex 46.143749999992515 2.8323327560587375 -26.013876257361282
    vertex 46.14374999999243 6.304479244350098 -26.386985254753085
  endloop
endfacet
facet normal 1.0 0.0 -2.2543078515013809e-13
  outer loop
    vertex 46.14374999999243 6.304479244350098 -26.386985254753085
    vertex 46.143749999992515 2.8323327560587375 -26.013876257361282
    vertex 46.14374999999232 3.03596504647204 -26.883621602713877
  endloop
endfacet
facet normal 1.0 0.0 -2.2543078515013809e-13
  outer loop
    vertex 46.14374999999243 6.304479244350098 -26.386985254753085
    vertex 46.14374999999232 3.03596504647204 -26.883621602713877
    vertex 46.14374999999232 6.535895433547448 -26.856252074520064
  endloop
endfacet
facet normal 1.0 0.0 -2.2543078515013809e-13
  outer loop
    vertex 46.14374999999232 6.535895433547448 -26.856252074520064
    vertex 46.14374999999232 3.03596504647204 -26.883621602713877
    vertex 46.14374999999223 6.826583614232334 -27.29129825869705
  endloop
endfacet
facet normal 1.0 0.0 -2.2543078515013809e-13
  outer loop
    vertex 46.14374999999223 6.826583614232334 -27.29129825869705
    vertex 46.14374999999232 3.03596504647204 -26.883621602713877
    vertex 46.14374999999213 3.3487008900436654 -27.72035296199655
  endloop
endfacet
facet normal 1.0 0.0 -2.2543078515013809e-13
  outer loop
    vertex 46.14374999999223 6.826583614232334 -27.29129825869705
    vertex 46.14374999999213 3.3487008900436654 -27.72035296199655
    vertex 46.14374999999214 7.1715700000000036 -27.68468000000159
  endloop
endfacet
facet normal 1.0 0.0 -2.2543078515013809e-13
  outer loop
    vertex 46.14374999999214 7.1715700000000036 -27.68468000000159
    vertex 46.14374999999213 3.3487008900436654 -27.72035296199655
    vertex 46.14374999999207 7.5649517413045535 -28.029666385769268
  endloop
endfacet
facet normal 1.0 0.0 -2.2543078515013809e-13
  outer loop
    vertex 46.14374999999207 7.5649517413045535 -28.029666385769268
    vertex 46.14374999999213 3.3487008900436654 -27.72035296199655
    vertex 46.143749999991954 3.765447645647936 -28.510444866242377
  endloop
endfacet
facet normal 1.0 0.0 -2.2543078515013809e-13
  outer loop
    vertex 46.14374999999207 7.5649517413045535 -28.029666385769268
    vertex 46.143749999991954 3.765447645647936 -28.510444866242377
    vertex 46.143749999991996 7.999997925481533 -28.320354566454153
  endloop
endfacet
facet normal 1.0 0.0 -2.2543078515013809e-13
  outer loop
    vertex 46.143749999991996 7.999997925481533 -28.320354566454153
    vertex 46.143749999991954 3.765447645647936 -28.510444866242377
    vertex 46.14374999999194 8.46926474524851 -28.551770755651503
  endloop
endfacet
facet normal 1.0 0.0 -2.2543078515013809e-13
  outer loop
    vertex 46.14374999999194 8.46926474524851 -28.551770755651503
    vertex 46.143749999991954 3.765447645647936 -28.510444866242377
    vertex 46.14374999999179 4.279418941622604 -29.241031330923725
  endloop
endfacet
facet normal 1.0 0.0 -2.2543078515013809e-13
  outer loop
    vertex 46.14374999999194 8.46926474524851 -28.551770755651503
    vertex 46.14374999999179 4.279418941622604 -29.241031330923725
    vertex 46.14374999999191 8.964722865106337 -28.71995533349319
  endloop
endfacet
facet normal 1.0 0.0 -2.2543078515013809e-13
  outer loop
    vertex 46.14374999999191 8.964722865106337 -28.71995533349319
    vertex 46.14374999999179 4.279418941622604 -29.241031330923725
    vertex 46.14374999999188 9.477894806353031 -28.822030597264284
  endloop
endfacet
facet normal 1.0 0.0 -2.2543078515013809e-13
  outer loop
    vertex 46.14374999999188 9.477894806353031 -28.822030597264284
    vertex 46.14374999999179 4.279418941622604 -29.241031330923725
    vertex 46.143749999991876 10.000000000000002 -28.856250000001598
  endloop
endfacet
facet normal 1.0 0.0 -2.2543078515013809e-13
  outer loop
    vertex 46.143749999991876 10.000000000000002 -28.856250000001598
    vertex 46.14374999999179 4.279418941622604 -29.241031330923725
    vertex 46.143749999991876 39.99999999999999 -28.856250000001598
  endloop
endfacet
facet normal 1.0 0.0 -2.2543078515013809e-13
  outer loop
    vertex 46.143749999991876 39.99999999999999 -28.856250000001598
    vertex 46.14374999999179 4.279418941622604 -29.241031330923725
    vertex 46.1437499999918 45.69982328264393 -29.221538230998434
  endloop
endfacet
facet normal 1.0 0.0 -2.2543078515013809e-13
  outer loop
    vertex 46.1437499999918 45.69982328264393 -29.221538230998434
    vertex 46.14374999999179 4.279418941622604 -29.241031330923725
    vertex 46.14374999999166 45.176539686930795 -29.79915337066838
  endloop
endfacet
facet normal 1.0 0.0 -2.2543078515013809e-13
  outer loop
    vertex 46.14374999999166 45.176539686930795 -29.79915337066838
    vertex 46.14374999999179 4.279418941622604 -29.241031330923725
    vertex 46.143749999991634 4.882245186144089 -29.900215367728023
  endloop
endfacet
facet normal 1.0 0.0 -2.2543078515013809e-13
  outer loop
    vertex 46.14374999999166 45.176539686930795 -29.79915337066838
    vertex 46.143749999991634 4.882245186144089 -29.900215367728023
    vertex 46.14374999999155 44.59324871043525 -30.316102698801487
  endloop
endfacet
facet normal 1.0 0.0 -2.2543078515013809e-13
  outer loop
    vertex 46.14374999999155 44.59324871043525 -30.316102698801487
    vertex 46.143749999991634 4.882245186144089 -29.900215367728023
    vertex 46.14374999999151 5.564109859016217 -30.47726271704216
  endloop
endfacet
facet normal 1.0 0.0 -2.2543078515013809e-13
  outer loop
    vertex 46.14374999999155 44.59324871043525 -30.316102698801487
    vertex 46.14374999999151 5.564109859016217 -30.47726271704216
    vertex 46.14374999999144 43.956941824074796 -30.76618993200041
  endloop
endfacet
facet normal 1.0 0.0 -2.2543078515013809e-13
  outer loop
    vertex 46.14374999999144 43.956941824074796 -30.76618993200041
    vertex 46.14374999999151 5.564109859016217 -30.47726271704216
    vertex 46.1437499999914 6.313909365474931 -30.96277664637452
  endloop
endfacet
facet normal 1.0 0.0 -2.2543078515013809e-13
  outer loop
    vertex 46.14374999999144 43.956941824074796 -30.76618993200041
    vertex 46.1437499999914 6.313909365474931 -30.96277664637452
    vertex 46.143749999991364 43.27524596066664 -31.14402021259027
  endloop
endfacet
facet normal 1.0 0.0 -2.2543078515013809e-13
  outer loop
    vertex 46.143749999991364 43.27524596066664 -31.14402021259027
    vertex 46.1437499999914 6.313909365474931 -30.96277664637452
    vertex 46.14374999999131 7.119433848923702 -31.348850968268724
  endloop
endfacet
facet normal 1.0 0.0 -2.2543078515013809e-13
  outer loop
    vertex 46.143749999991364 43.27524596066664 -31.14402021259027
    vertex 46.14374999999131 7.119433848923702 -31.348850968268724
    vertex 46.143749999991286 42.556332096611335 -31.445064772726262
  endloop
endfacet
facet normal 1.0 0.0 -2.2543078515013809e-13
  outer loop
    vertex 46.143749999991286 42.556332096611335 -31.445064772726262
    vertex 46.14374999999131 7.119433848923702 -31.348850968268724
    vertex 46.14374999999125 7.967566018215785 -31.62919878594061
  endloop
endfacet
facet normal 1.0 0.0 -2.2543078515013809e-13
  outer loop
    vertex 46.143749999991286 42.556332096611335 -31.445064772726262
    vertex 46.14374999999125 7.967566018215785 -31.62919878594061
    vertex 46.14374999999124 41.80881731253465 -31.665715217333076
  endloop
endfacet
facet normal 1.0 0.0 -2.2543078515013809e-13
  outer loop
    vertex 46.14374999999124 41.80881731253465 -31.665715217333076
    vertex 46.14374999999125 7.967566018215785 -31.62919878594061
    vertex 46.14374999999121 8.844494751747662 -31.799254870123615
  endloop
endfacet
facet normal 1.0 0.0 -2.2543078515013809e-13
  outer loop
    vertex 46.14374999999124 41.80881731253465 -31.665715217333076
    vertex 46.14374999999121 8.844494751747662 -31.799254870123615
    vertex 46.14374999999121 41.041661506813 -31.8033267752269
  endloop
endfacet
facet normal 1.0 0.0 -2.2543078515013809e-13
  outer loop
    vertex 46.14374999999121 41.041661506813 -31.8033267752269
    vertex 46.14374999999121 8.844494751747662 -31.799254870123615
    vertex 46.1437499999912 9.73594 -31.856250000001594
  endloop
endfacet
facet normal 1.0 0.0 -2.2543078515013809e-13
  outer loop
    vertex 46.14374999999121 41.041661506813 -31.8033267752269
    vertex 46.1437499999912 9.73594 -31.856250000001594
    vertex 46.1437499999912 40.26406 -31.856250000001594
  endloop
endfacet
facet normal 1.0 0.0 -2.2543078515013809e-13
  outer loop
    vertex 46.14375000000878 50.0 46.143749999998406
    vertex 46.14375000000653 44.0 36.143749999998406
    vertex 46.143749999992416 47.07974 -26.452000000001597
  endloop
endfacet
facet normal 1.0 0.0 -2.2543078515013809e-13
  outer loop
    vertex 46.14375000000653 44.0 36.143749999998406
    vertex 46.14375000000878 50.0 46.143749999998406
    vertex 46.14375000000665 43.965780597262686 36.66585519364538
  endloop
endfacet
facet normal 1.0 0.0 -2.2543078515013809e-13
  outer loop
    vertex 46.14375000000665 43.965780597262686 36.66585519364538
    vertex 46.14375000000878 50.0 46.143749999998406
    vertex 46.14375000000676 43.8637053334916 37.179027134892074
  endloop
endfacet
facet normal 1.0 0.0 -2.2543078515013809e-13
  outer loop
    vertex 46.14375000000676 43.8637053334916 37.179027134892074
    vertex 46.14375000000878 50.0 46.143749999998406
    vertex 46.143750000006875 43.69552075564991 37.6744852547499
  endloop
endfacet
facet normal 1.0 0.0 -2.2543078515013809e-13
  outer loop
    vertex 46.143750000006875 43.69552075564991 37.6744852547499
    vertex 46.14375000000878 50.0 46.143749999998406
    vertex 46.143750000006975 43.46410456645256 38.14375207451688
  endloop
endfacet
facet normal 1.0 0.0 -2.2543078515013809e-13
  outer loop
    vertex 46.143750000006975 43.46410456645256 38.14375207451688
    vertex 46.14375000000878 50.0 46.143749999998406
    vertex 46.14375000000708 43.173416385767666 38.578798258693865
  endloop
endfacet
facet normal 1.0 0.0 -2.2543078515013809e-13
  outer loop
    vertex 46.14375000000708 43.173416385767666 38.578798258693865
    vertex 46.14375000000878 50.0 46.143749999998406
    vertex 46.14375000000717 42.82843 38.97217999999841
  endloop
endfacet
facet normal 1.0 0.0 -2.2543078515013809e-13
  outer loop
    vertex 46.14375000000717 42.82843 38.97217999999841
    vertex 46.14375000000878 50.0 46.143749999998406
    vertex 46.143750000007245 42.43504825869545 39.31716638576608
  endloop
endfacet
facet normal 1.0 0.0 -2.2543078515013809e-13
  outer loop
    vertex 46.143750000007245 42.43504825869545 39.31716638576608
    vertex 46.14375000000878 50.0 46.143749999998406
    vertex 46.14375000000731 42.00000207451847 39.60785456645097
  endloop
endfacet
facet normal 1.0 0.0 -2.2543078515013809e-13
  outer loop
    vertex 46.14375000000731 42.00000207451847 39.60785456645097
    vertex 46.14375000000878 50.0 46.143749999998406
    vertex 46.14375000000736 41.530735254751484 39.839270755648315
  endloop
endfacet
facet normal 1.0 0.0 -2.2543078515013809e-13
  outer loop
    vertex 46.14375000000736 41.530735254751484 39.839270755648315
    vertex 46.14375000000878 50.0 46.143749999998406
    vertex 46.143750000007394 41.03527713489366 40.00745533349001
  endloop
endfacet
facet normal 1.0 0.0 -2.2543078515013809e-13
  outer loop
    vertex 46.143750000007394 41.03527713489366 40.00745533349001
    vertex 46.14375000000878 50.0 46.143749999998406
    vertex 46.14375000000742 40.522105193646965 40.10953059726109
  endloop
endfacet
facet normal 1.0 0.0 -2.2543078515013809e-13
  outer loop
    vertex 46.14375000000742 40.522105193646965 40.10953059726109
    vertex 46.14375000000878 50.0 46.143749999998406
    vertex 46.14375000000743 39.99999999999999 40.143749999998406
  endloop
endfacet
facet normal 1.0 0.0 -2.2543078515013809e-13
  outer loop
    vertex 46.14375000000743 39.99999999999999 40.143749999998406
    vertex 46.14375000000878 50.0 46.143749999998406
    vertex 46.14375000000743 10.000000000000002 40.143749999998406
  endloop
endfacet
facet normal 1.0 0.0 -2.2543078515013809e-13
  outer loop
    vertex 46.143749999992416 47.07974 -26.452000000001597
    vertex 46.14375000000653 44.0 36.143749999998406
    vertex 46.14374999999278 44.0 -24.856250000001594
  endloop
endfacet
facet normal 1.0 0.0 -2.2543078515013809e-13
  outer loop
    vertex 46.143749999992416 47.07974 -26.452000000001597
    vertex 46.14374999999278 44.0 -24.856250000001594
    vertex 46.14374999999266 43.965780597262686 -25.378355193648567
  endloop
endfacet
facet normal 1.0 0.0 -2.2543078515013809e-13
  outer loop
    vertex 46.143749999992416 47.07974 -26.452000000001597
    vertex 46.14374999999266 43.965780597262686 -25.378355193648567
    vertex 46.14374999999254 43.86370533349159 -25.89152713489526
  endloop
endfacet
facet normal 1.0 0.0 -2.2543078515013809e-13
  outer loop
    vertex 46.143749999992416 47.07974 -26.452000000001597
    vertex 46.14374999999254 43.86370533349159 -25.89152713489526
    vertex 46.14374999999243 43.6955207556499 -26.386985254753085
  endloop
endfacet
facet normal 1.0 0.0 -2.2543078515013809e-13
  outer loop
    vertex 46.143749999992416 47.07974 -26.452000000001597
    vertex 46.14374999999243 43.6955207556499 -26.386985254753085
    vertex 46.14374999999232 43.46410456645255 -26.856252074520064
  endloop
endfacet
facet normal 1.0 0.0 -2.2543078515013809e-13
  outer loop
    vertex 46.143749999992416 47.07974 -26.452000000001597
    vertex 46.14374999999232 43.46410456645255 -26.856252074520064
    vertex 46.143749999992245 46.850945586132696 -27.1970624720813
  endloop
endfacet
facet normal 1.0 0.0 -2.2543078515013809e-13
  outer loop
    vertex 46.143749999992245 46.850945586132696 -27.1970624720813
    vertex 46.14374999999232 43.46410456645255 -26.856252074520064
    vertex 46.14374999999223 43.173416385767666 -27.29129825869705
  endloop
endfacet
facet normal 1.0 0.0 -2.2543078515013809e-13
  outer loop
    vertex 46.143749999992245 46.850945586132696 -27.1970624720813
    vertex 46.14374999999223 43.173416385767666 -27.29129825869705
    vertex 46.14374999999209 46.54207394535109 -27.91264844220597
  endloop
endfacet
facet normal 1.0 0.0 -2.2543078515013809e-13
  outer loop
    vertex 46.14374999999209 46.54207394535109 -27.91264844220597
    vertex 46.14374999999223 43.173416385767666 -27.29129825869705
    vertex 46.14374999999214 42.82843 -27.6846800000016
  endloop
endfacet
facet normal 1.0 0.0 -2.2543078515013809e-13
  outer loop
    vertex 46.14374999999209 46.54207394535109 -27.91264844220597
    vertex 46.14374999999214 42.82843 -27.6846800000016
    vertex 46.14374999999207 42.435048258695446 -28.029666385769268
  endloop
endfacet
facet normal 1.0 0.0 -2.2543078515013809e-13
  outer loop
    vertex 46.14374999999209 46.54207394535109 -27.91264844220597
    vertex 46.14374999999207 42.435048258695446 -28.029666385769268
    vertex 46.14374999999194 46.15682729006851 -28.590180718715366
  endloop
endfacet
facet normal 1.0 0.0 -2.2543078515013809e-13
  outer loop
    vertex 46.14374999999194 46.15682729006851 -28.590180718715366
    vertex 46.14374999999207 42.435048258695446 -28.029666385769268
    vertex 46.143749999991996 42.00000207451846 -28.320354566454153
  endloop
endfacet
facet normal 1.0 0.0 -2.2543078515013809e-13
  outer loop
    vertex 46.14374999999194 46.15682729006851 -28.590180718715366
    vertex 46.143749999991996 42.00000207451846 -28.320354566454153
    vertex 46.14374999999194 41.530735254751484 -28.551770755651503
  endloop
endfacet
facet normal 1.0 0.0 -2.2543078515013809e-13
  outer loop
    vertex 46.14374999999194 46.15682729006851 -28.590180718715366
    vertex 46.14374999999194 41.530735254751484 -28.551770755651503
    vertex 46.14374999999191 41.03527713489366 -28.7199553334932
  endloop
endfacet
facet normal 1.0 0.0 -2.2543078515013809e-13
  outer loop
    vertex 46.14374999999194 46.15682729006851 -28.590180718715366
    vertex 46.14374999999191 41.03527713489366 -28.7199553334932
    vertex 46.1437499999918 45.69982328264393 -29.221538230998434
  endloop
endfacet
facet normal 1.0 0.0 -2.2543078515013809e-13
  outer loop
    vertex 46.1437499999918 45.69982328264393 -29.221538230998434
    vertex 46.14374999999191 41.03527713489366 -28.7199553334932
    vertex 46.14374999999188 40.522105193646965 -28.822030597264284
  endloop
endfacet
facet normal 1.0 0.0 -2.2543078515013809e-13
  outer loop
    vertex 46.1437499999918 45.69982328264393 -29.221538230998434
    vertex 46.14374999999188 40.522105193646965 -28.822030597264284
    vertex 46.143749999991876 39.99999999999999 -28.856250000001598
  endloop
endfacet
facet normal -2.090902960399521e-13 -0.37378746058316764 -0.9275143849616496
  outer loop
    vertex 31.856249999991316 7.119433848923702 -31.348850968265495
    vertex 46.1437499999914 6.313909365474931 -30.96277664637452
    vertex 31.8562499999914 6.313909365474931 -30.962776646371296
  endloop
endfacet
facet normal -1.9665699826429366e-13 -0.4888624488259441 -0.8723608806726156
  outer loop
    vertex 46.1437499999914 6.313909365474931 -30.96277664637452
    vertex 31.856249999991316 7.119433848923702 -31.348850968265495
    vertex 46.14374999999131 7.119433848923702 -31.348850968268724
  endloop
endfacet
facet normal 2.2543078515013809e-13 0.0 1.0
  outer loop
    vertex 46.14375000000878 50.0 46.143749999998406
    vertex 31.856250000008785 0.0 46.143750000001624
    vertex 46.14375000000878 0.0 46.143749999998406
  endloop
endfacet
facet normal 2.2543078515013809e-13 0.0 1.0
  outer loop
    vertex 31.856250000008785 0.0 46.143750000001624
    vertex 46.14375000000878 50.0 46.143749999998406
    vertex 31.856250000008785 50.0 46.143750000001624
  endloop
endfacet
facet normal -3.728055515670208e-14 -0.9862308040118584 -0.16537472968420455
  outer loop
    vertex 46.143749999992515 2.8323327560587375 -26.013876257361282
    vertex 31.856249999992716 2.741119999999999 -25.125279999998362
    vertex 31.856249999992517 2.8323327560587375 -26.013876257358056
  endloop
endfacet
facet normal -2.3019097354476163e-14 -0.9947729499117035 -0.10211159642257965
  outer loop
    vertex 31.856249999992716 2.741119999999999 -25.125279999998362
    vertex 46.143749999992515 2.8323327560587375 -26.013876257361282
    vertex 46.14374999999272 2.741119999999999 -25.125280000001588
  endloop
endfacet
facet normal -1.17681087311457e-13 -0.8529286050657638 -0.5220275803638832
  outer loop
    vertex 46.143749999991954 3.765447645647936 -28.510444866242377
    vertex 31.856249999992134 3.3487008900436654 -27.720352961993324
    vertex 31.856249999991952 3.765447645647936 -28.51044486623915
  endloop
endfacet
facet normal -9.223663954961516e-14 -0.9124638879612686 -0.4091572474814612
  outer loop
    vertex 31.856249999992134 3.3487008900436654 -27.720352961993324
    vertex 46.143749999991954 3.765447645647936 -28.510444866242377
    vertex 46.14374999999213 3.3487008900436654 -27.72035296199655
  endloop
endfacet
facet normal -6.529019541121512e-14 -0.9571404611276363 -0.2896241317162228
  outer loop
    vertex 46.14374999999232 3.03596504647204 -26.883621602713877
    vertex 31.856249999992517 2.8323327560587375 -26.013876257358056
    vertex 31.856249999992322 3.03596504647204 -26.88362160271065
  endloop
endfacet
facet normal -3.728055515670208e-14 -0.9862308040118584 -0.16537472968420455
  outer loop
    vertex 31.856249999992517 2.8323327560587375 -26.013876257358056
    vertex 46.14374999999232 3.03596504647204 -26.883621602713877
    vertex 46.143749999992515 2.8323327560587375 -26.013876257361282
  endloop
endfacet
facet normal -8.664019815973465e-15 -0.9992611727673729 -0.038433170563652974
  outer loop
    vertex 46.14374999999272 2.741119999999999 -25.125280000001588
    vertex 31.856250000008785 0.0 46.143750000001624
    vertex 31.856249999992716 2.741119999999999 -25.125279999998362
  endloop
endfacet
facet normal -8.664019815973465e-15 -0.9992611727673729 -0.038433170563652974
  outer loop
    vertex 31.856250000008785 0.0 46.143750000001624
    vertex 46.14374999999272 2.741119999999999 -25.125280000001588
    vertex 46.14375000000878 0.0 46.143749999998406
  endloop
endfacet
facet normal -1.6243783362915695e-13 -0.6933860132727383 -0.7205663304635722
  outer loop
    vertex 46.143749999991634 4.882245186144089 -29.900215367728023
    vertex 31.85624999999179 4.279418941622604 -29.2410313309205
    vertex 31.85624999999164 4.882245186144089 -29.900215367724797
  endloop
endfacet
facet normal -1.4120919718854396e-13 -0.7795040946297996 -0.626397131582973
  outer loop
    vertex 31.85624999999179 4.279418941622604 -29.2410313309205
    vertex 46.143749999991634 4.882245186144089 -29.900215367728023
    vertex 46.14374999999179 4.279418941622604 -29.241031330923725
  endloop
endfacet
facet normal -1.4120919718854396e-13 -0.7795040946297996 -0.626397131582973
  outer loop
    vertex 46.14374999999179 4.279418941622604 -29.241031330923725
    vertex 31.856249999991952 3.765447645647936 -28.51044486623915
    vertex 31.85624999999179 4.279418941622604 -29.2410313309205
  endloop
endfacet
facet normal -1.17681087311457e-13 -0.8529286050657638 -0.5220275803638832
  outer loop
    vertex 31.856249999991952 3.765447645647936 -28.51044486623915
    vertex 46.14374999999179 4.279418941622604 -29.241031330923725
    vertex 46.143749999991954 3.765447645647936 -28.510444866242377
  endloop
endfacet
facet normal -9.223663954961516e-14 -0.9124638879612686 -0.4091572474814612
  outer loop
    vertex 46.14374999999213 3.3487008900436654 -27.72035296199655
    vertex 31.856249999992322 3.03596504647204 -26.88362160271065
    vertex 31.856249999992134 3.3487008900436654 -27.720352961993324
  endloop
endfacet
facet normal -6.529019541121512e-14 -0.9571404611276363 -0.2896241317162228
  outer loop
    vertex 31.856249999992322 3.03596504647204 -26.88362160271065
    vertex 46.14374999999213 3.3487008900436654 -27.72035296199655
    vertex 46.14374999999232 3.03596504647204 -26.883621602713877
  endloop
endfacet
facet normal 2.2350225370990014e-13 0.1305241645651767 0.9914451283175297
  outer loop
    vertex 46.14374999999188 9.477894806353031 -28.822030597264284
    vertex 31.85624999999191 8.964722865106337 -28.719955333489963
    vertex 46.14374999999191 8.964722865106337 -28.71995533349319
  endloop
endfacet
facet normal 2.1774951287760157e-13 0.258817464730718 0.965926249747031
  outer loop
    vertex 31.85624999999191 8.964722865106337 -28.719955333489963
    vertex 46.14374999999188 9.477894806353031 -28.822030597264284
    vertex 31.856249999991885 9.477894806353031 -28.822030597261058
  endloop
endfacet
facet normal -1.8102130607942554e-13 -0.5959767217786011 -0.8030017105199914
  outer loop
    vertex 31.85624999999151 5.564109859016217 -30.477262717038933
    vertex 46.143749999991634 4.882245186144089 -29.900215367728023
    vertex 31.85624999999164 4.882245186144089 -29.900215367724797
  endloop
endfacet
facet normal -1.6243783362915695e-13 -0.6933860132727383 -0.7205663304635722
  outer loop
    vertex 46.143749999991634 4.882245186144089 -29.900215367728023
    vertex 31.85624999999151 5.564109859016217 -30.477262717038933
    vertex 46.14374999999151 5.564109859016217 -30.47726271704216
  endloop
endfacet
facet normal 2.0827099425743454e-13 0.3826822986808194 0.9238800020978721
  outer loop
    vertex 46.14374999999194 8.46926474524851 -28.551770755651503
    vertex 31.856249999992 7.999997925481533 -28.320354566450927
    vertex 46.143749999991996 7.999997925481533 -28.320354566454153
  endloop
endfacet
facet normal 1.9522887894303255e-13 0.499999291538688 0.8660258128143815
  outer loop
    vertex 31.856249999992 7.999997925481533 -28.320354566450927
    vertex 46.14374999999194 8.46926474524851 -28.551770755651503
    vertex 31.85624999999194 8.46926474524851 -28.551770755648278
  endloop
endfacet
facet normal 2.1774951287760157e-13 0.258817464730718 0.965926249747031
  outer loop
    vertex 46.14374999999191 8.964722865106337 -28.71995533349319
    vertex 31.85624999999194 8.46926474524851 -28.551770755648278
    vertex 46.14374999999194 8.46926474524851 -28.551770755651503
  endloop
endfacet
facet normal 2.0827099425743454e-13 0.3826822986808194 0.9238800020978721
  outer loop
    vertex 31.85624999999194 8.46926474524851 -28.551770755648278
    vertex 46.14374999999191 8.964722865106337 -28.71995533349319
    vertex 31.85624999999191 8.964722865106337 -28.719955333489963
  endloop
endfacet
facet normal 2.2494815370298741e-13 0.0654008843804092 0.9978590703712927
  outer loop
    vertex 46.143749999991876 10.000000000000002 -28.856250000001598
    vertex 31.856249999991885 9.477894806353031 -28.822030597261058
    vertex 46.14374999999188 9.477894806353031 -28.822030597264284
  endloop
endfacet
facet normal 2.2350225370990014e-13 0.1305241645651767 0.9914451283175297
  outer loop
    vertex 31.856249999991885 9.477894806353031 -28.822030597261058
    vertex 46.143749999991876 10.000000000000002 -28.856250000001598
    vertex 31.856249999991874 10.000000000000002 -28.856249999998372
  endloop
endfacet
facet normal 1.1269997281083811e-13 -5.148888429024544e-13 1.0
  outer loop
    vertex 46.14375000000878 -38.099999999999994 46.14374999997879
    vertex 31.856250000008785 3.127278603393435 46.143750000001624
    vertex 31.856250000008785 -38.099999999999994 46.14374999997879
  endloop
endfacet
facet normal 1.1269997281083811e-13 -5.148888429024544e-13 1.0
  outer loop
    vertex 31.856250000008785 3.127278603393435 46.143750000001624
    vertex 46.14375000000878 -38.099999999999994 46.14374999997879
    vertex 46.14375000000878 3.127278603393435 46.143749999998406
  endloop
endfacet
facet normal -1.1269997281083811e-13 5.148888429024544e-13 -1.0
  outer loop
    vertex 46.1437500000081 3.1272786033965243 40.143749999995045
    vertex 31.8562500000081 -38.09999999999691 40.14374999997542
    vertex 31.8562500000081 3.1272786033965243 40.14374999999826
  endloop
endfacet
facet normal -1.1269997281083811e-13 5.148888429024544e-13 -1.0
  outer loop
    vertex 31.8562500000081 -38.09999999999691 40.14374999997542
    vertex 46.1437500000081 3.1272786033965243 40.143749999995045
    vertex 46.1437500000081 -38.09999999999691 40.14374999997542
  endloop
endfacet
facet normal -1.0 -1.1605591719142103e-25 1.1269997281083812e-13
  outer loop
    vertex 31.856250000008785 3.127278603393435 46.143750000001624
    vertex 31.8562500000081 -38.09999999999691 40.14374999997542
    vertex 31.856250000008785 -38.099999999999994 46.14374999997879
  endloop
endfacet
facet normal -1.0 -1.1605591719142103e-25 1.1269997281083812e-13
  outer loop
    vertex 31.8562500000081 -38.09999999999691 40.14374999997542
    vertex 31.856250000008785 3.127278603393435 46.143750000001624
    vertex 31.8562500000081 3.1272786033965243 40.14374999999826
  endloop
endfacet
facet normal 1.16055917191421e-25 1.0 5.148888429024543e-13
  outer loop
    vertex 31.8562500000081 3.1272786033965243 40.14374999999826
    vertex 46.14375000000878 3.127278603393435 46.143749999998406
    vertex 46.1437500000081 3.1272786033965243 40.143749999995045
  endloop
endfacet
facet normal 1.16055917191421e-25 1.0 5.148888429024543e-13
  outer loop
    vertex 46.14375000000878 3.127278603393435 46.143749999998406
    vertex 31.8562500000081 3.1272786033965243 40.14374999999826
    vertex 31.856250000008785 3.127278603393435 46.143750000001624
  endloop
endfacet
facet normal 1.0 0.0 -1.1269997281083812e-13
  outer loop
    vertex 46.1437500000081 -38.09999999999691 40.14374999997542
    vertex 46.14375000000878 3.127278603393435 46.143749999998406
    vertex 46.14375000000878 -38.099999999999994 46.14374999997879
  endloop
endfacet
facet normal 1.0 0.0 -1.1269997281083812e-13
  outer loop
    vertex 46.14375000000878 3.127278603393435 46.143749999998406
    vertex 46.1437500000081 -38.09999999999691 40.14374999997542
    vertex 46.1437500000081 3.1272786033965243 40.143749999995045
  endloop
endfacet
facet normal -0.0 -1.0 -5.148888429024543e-13
  outer loop
    vertex 46.14375000000878 -38.099999999999994 46.14374999997879
    vertex 31.8562500000081 -38.09999999999691 40.14374999997542
    vertex 46.1437500000081 -38.09999999999691 40.14374999997542
  endloop
endfacet
facet normal -0.0 -1.0 -5.148888429024543e-13
  outer loop
    vertex 31.8562500000081 -38.09999999999691 40.14374999997542
    vertex 46.14375000000878 -38.099999999999994 46.14374999997879
    vertex 31.856250000008785 -38.099999999999994 46.14374999997879
  endloop
endfacet
endsolid kinect_holder
